<svg width="616" height="512" viewBox="0 0 616 512" fill="none" xmlns="http://www.w3.org/2000/svg">
<g clip-path="url(#clip0_1_1360)">
<path d="M90.213 464.803C210.502 527.709 405.513 527.723 525.802 464.803C646.09 401.882 646.076 299.899 525.802 236.993C405.527 174.087 210.502 174.087 90.213 236.993C-30.0756 299.899 -30.0612 401.911 90.213 464.803Z" fill="#F0F0F0"/>
<path d="M551.341 341.621C551.341 341.621 552.848 334.032 565.079 328.169C576.98 322.42 583.842 323.756 592.011 320.465C600.18 317.174 594.308 301.71 571.913 308.58C551.398 314.875 549.316 332.653 549.316 332.653L551.341 341.621Z" fill="url(#paint0_linear_1_1360)"/>
<path opacity="0.2" d="M551.341 341.621C551.341 341.621 552.848 334.032 565.079 328.169C576.98 322.42 583.842 323.756 592.011 320.465C600.18 317.174 594.308 301.71 571.913 308.58C551.398 314.875 549.316 332.653 549.316 332.653L551.341 341.621Z" fill="#020D0B"/>
<path d="M549.187 338.775C549.106 338.789 549.024 338.789 548.943 338.775C548.845 338.741 548.754 338.688 548.677 338.619C548.599 338.55 548.536 338.467 548.49 338.373C548.445 338.28 548.419 338.178 548.413 338.075C548.406 337.971 548.421 337.867 548.455 337.769C551.326 329.548 558.504 321.96 567.864 317.332C579.866 311.454 588.407 313.322 588.766 313.409C588.968 313.454 589.143 313.579 589.254 313.754C589.364 313.929 589.401 314.141 589.355 314.343C589.309 314.545 589.185 314.72 589.01 314.831C588.835 314.941 588.623 314.978 588.422 314.932C588.336 314.932 580.023 313.121 568.553 318.741C559.581 323.138 552.618 330.439 549.89 338.287C549.831 338.426 549.733 338.546 549.609 338.632C549.485 338.719 549.338 338.768 549.187 338.775Z" fill="#FAFAFA"/>
<path d="M549.575 332.164C549.575 332.164 551.01 327.852 556.537 319.416C566.07 304.785 581.617 298.39 588.422 290.026C595.743 281 583.081 275.424 571.697 278.528C565.18 280.339 559.236 286.289 556.121 290.299C549.521 299.019 545.739 309.549 545.282 320.48L549.575 332.164Z" fill="url(#paint1_linear_1_1360)"/>
<path d="M547.436 332.509C547.229 332.501 547.033 332.413 546.891 332.262C546.749 332.112 546.671 331.911 546.675 331.704C547.341 322.21 550.038 312.971 554.585 304.613C563.199 289.134 575.975 283.63 576.521 283.4C576.703 283.357 576.894 283.381 577.06 283.466C577.226 283.55 577.357 283.691 577.429 283.864C577.501 284.036 577.51 284.228 577.455 284.406C577.399 284.585 577.282 284.737 577.124 284.837C568.132 289.344 560.74 296.509 555.949 305.36C551.519 313.496 548.89 322.49 548.24 331.733C548.238 331.837 548.216 331.939 548.174 332.034C548.133 332.13 548.073 332.216 547.998 332.288C547.924 332.36 547.836 332.416 547.739 332.454C547.643 332.492 547.54 332.511 547.436 332.509Z" fill="#FAFAFA"/>
<path d="M129.993 345.099C119.671 338.157 119.212 319.474 120.705 307.732C123.074 289.048 113.527 284.737 108.66 292.986C106.306 296.996 103.349 305.705 103.679 315.852C104.21 331.747 111.086 350.761 127.739 357.66L129.993 345.099Z" fill="url(#paint2_linear_1_1360)"/>
<path opacity="0.2" d="M129.993 345.099C119.671 338.157 119.212 319.474 120.705 307.732C123.074 289.048 113.527 284.737 108.66 292.986C106.306 296.996 103.349 305.705 103.679 315.852C104.21 331.747 111.086 350.761 127.739 357.66L129.993 345.099Z" fill="#020D0B"/>
<path d="M127.869 356.596C127.7 356.596 127.537 356.535 127.409 356.424C109.938 341.463 107.196 314.745 112.048 296.22C112.072 296.125 112.114 296.037 112.172 295.958C112.229 295.88 112.302 295.814 112.385 295.764C112.469 295.714 112.561 295.681 112.657 295.667C112.753 295.653 112.851 295.657 112.946 295.681C113.04 295.704 113.129 295.746 113.207 295.804C113.285 295.862 113.351 295.935 113.401 296.018C113.451 296.102 113.484 296.194 113.498 296.29C113.512 296.387 113.507 296.485 113.484 296.579C108.746 314.673 111.374 340.773 128.385 355.332C128.457 355.392 128.516 355.467 128.559 355.55C128.601 355.634 128.626 355.726 128.633 355.819C128.64 355.913 128.628 356.007 128.598 356.096C128.567 356.185 128.52 356.267 128.457 356.338C128.387 356.425 128.297 356.495 128.195 356.54C128.092 356.585 127.98 356.604 127.869 356.596Z" fill="#FAFAFA"/>
<path d="M145.512 379.591C136.525 386.059 115.867 391.649 109.148 380.569C102.903 370.264 107.081 365.766 94.4047 367.548C81.7284 369.33 78.8141 359.471 81.8145 351.135C84.8149 342.799 72.3252 330.741 81.4413 321.342C90.5573 311.943 95.7973 331.489 101.08 333.601C106.363 335.714 109.593 331.158 115.68 334.478C121.767 337.798 122.356 351.379 128.285 351.638C137.989 352.084 154.327 352.012 155.561 360.678C156.796 369.344 145.512 379.591 145.512 379.591Z" fill="url(#paint3_linear_1_1360)"/>
<path d="M149.23 375.797H149.158C102.143 370.882 83.9536 329.807 82.8338 323.828C82.8168 323.734 82.8186 323.637 82.839 323.543C82.8594 323.45 82.898 323.361 82.9527 323.282C83.0073 323.204 83.0769 323.136 83.1575 323.085C83.2381 323.033 83.3281 322.997 83.4224 322.98C83.5167 322.963 83.6133 322.965 83.7069 322.986C83.8005 323.006 83.8891 323.045 83.9678 323.099C84.0464 323.154 84.1136 323.224 84.1653 323.304C84.2171 323.385 84.2524 323.475 84.2694 323.57C85.3605 329.448 103.176 369.56 149.331 374.374C149.425 374.383 149.517 374.411 149.601 374.456C149.684 374.5 149.758 374.561 149.818 374.635C149.878 374.708 149.923 374.793 149.95 374.884C149.978 374.975 149.987 375.07 149.977 375.165C149.952 375.344 149.862 375.507 149.724 375.624C149.587 375.741 149.411 375.802 149.23 375.797Z" fill="#FAFAFA"/>
<path d="M97.8211 357.401C94.8541 357.401 91.8919 357.161 88.9635 356.683C88.7773 356.648 88.6124 356.54 88.5048 356.384C88.3973 356.228 88.3557 356.036 88.3893 355.849C88.4048 355.756 88.4388 355.667 88.4894 355.587C88.54 355.507 88.6061 355.438 88.6838 355.385C88.7615 355.331 88.8492 355.294 88.9416 355.275C89.0341 355.256 89.1294 355.255 89.2219 355.274C94.5837 356.158 100.054 356.158 105.415 355.274C105.604 355.236 105.8 355.273 105.961 355.378C106.122 355.483 106.235 355.647 106.277 355.835C106.296 355.927 106.296 356.022 106.278 356.115C106.26 356.208 106.224 356.296 106.172 356.375C106.12 356.453 106.053 356.521 105.975 356.574C105.897 356.627 105.809 356.664 105.717 356.683C103.117 357.193 100.471 357.434 97.8211 357.401Z" fill="#FAFAFA"/>
<path d="M111.847 361.698H111.69C111.506 361.657 111.345 361.545 111.243 361.386C111.141 361.228 111.106 361.035 111.144 360.85C112.594 354.451 112.939 347.85 112.163 341.333C112.133 341.143 112.179 340.948 112.292 340.792C112.405 340.635 112.576 340.53 112.766 340.5C112.957 340.469 113.151 340.516 113.307 340.629C113.464 340.742 113.568 340.913 113.599 341.103C114.431 347.819 114.081 354.629 112.565 361.224C112.513 361.37 112.415 361.495 112.285 361.581C112.156 361.666 112.002 361.707 111.847 361.698Z" fill="#FAFAFA"/>
<path d="M23.8589 305.461L46.3978 292.44C47.4823 291.894 48.6795 291.61 49.8934 291.61C51.1074 291.61 52.3046 291.894 53.3891 292.44L56.2603 294.093C57.2807 294.755 58.13 295.65 58.7388 296.704C59.3476 297.758 59.6986 298.942 59.7632 300.158V326.2C59.6963 327.415 59.3443 328.597 58.7357 329.651C58.1271 330.705 57.2791 331.6 56.2603 332.265L33.7358 345.286C32.6512 345.832 31.4541 346.116 30.2401 346.116C29.0262 346.116 27.829 345.832 26.7445 345.286L23.8733 343.633C22.8556 342.969 22.0091 342.073 21.4028 341.019C20.7966 339.965 20.4478 338.782 20.3848 337.568V311.526C20.4495 310.313 20.7976 309.133 21.401 308.08C22.0044 307.026 22.8463 306.129 23.8589 305.461Z" fill="url(#paint4_linear_1_1360)"/>
<path opacity="0.5" d="M23.8589 305.461L46.3978 292.44C47.4823 291.894 48.6795 291.61 49.8934 291.61C51.1074 291.61 52.3046 291.894 53.3891 292.44L56.2603 294.093C57.2807 294.755 58.13 295.65 58.7388 296.704C59.3476 297.758 59.6986 298.942 59.7632 300.158V326.2C59.6963 327.415 59.3443 328.597 58.7357 329.651C58.1271 330.705 57.2791 331.6 56.2603 332.265L33.7358 345.286C32.6512 345.832 31.4541 346.116 30.2401 346.116C29.0262 346.116 27.829 345.832 26.7445 345.286L23.8733 343.633C22.8556 342.969 22.0091 342.073 21.4028 341.019C20.7966 339.965 20.4478 338.782 20.3848 337.568V311.526C20.4495 310.313 20.7976 309.133 21.401 308.08C22.0044 307.026 22.8463 306.129 23.8589 305.461Z" fill="#FAFAFA"/>
<path d="M59.7343 300.158C59.7343 297.916 58.1695 297.01 56.2315 298.131L33.707 311.152C32.6882 311.817 31.8401 312.712 31.2315 313.766C30.6229 314.819 30.271 316.002 30.2041 317.217V343.259C30.2041 345.487 31.7689 346.392 33.707 345.286L56.2315 332.265C57.2502 331.6 58.0983 330.705 58.7069 329.651C59.3155 328.597 59.6675 327.415 59.7343 326.2V300.158Z" fill="url(#paint5_linear_1_1360)"/>
<path d="M20.3711 337.568C20.4296 338.787 20.7764 339.976 21.3828 341.035C21.9892 342.094 22.8381 342.995 23.8596 343.662L26.7308 345.314C27.7158 345.809 28.7945 346.09 29.8957 346.137C30.9969 346.184 32.0956 345.997 33.1192 345.587C31.4683 346.22 30.248 345.286 30.248 343.288V317.217C30.2861 315.997 30.6425 314.808 31.2816 313.768L21.4334 308.019C20.8071 309.064 20.4563 310.251 20.4142 311.468L20.3711 337.568Z" fill="url(#paint6_linear_1_1360)"/>
<path opacity="0.1" d="M20.3711 337.568C20.4296 338.787 20.7764 339.976 21.3828 341.035C21.9892 342.094 22.8381 342.995 23.8596 343.662L26.7308 345.314C27.7158 345.809 28.7945 346.09 29.8957 346.137C30.9969 346.184 32.0956 345.997 33.1192 345.587C31.4683 346.22 30.248 345.286 30.248 343.288V317.217C30.2861 315.997 30.6425 314.808 31.2816 313.768L21.4334 308.019C20.8071 309.064 20.4563 310.251 20.4142 311.468L20.3711 337.568Z" fill="#020D0B"/>
<path d="M35.4302 318.999L54.5954 307.89C55.0979 307.588 55.5142 307.89 55.5142 308.422V321.356C55.4977 321.68 55.4061 321.995 55.2466 322.277C55.0871 322.559 54.8641 322.8 54.5954 322.98L35.4302 334.176C34.9134 334.478 34.4971 334.176 34.4971 333.63V320.695C34.5039 320.358 34.5924 320.028 34.755 319.732C34.9175 319.437 35.1492 319.185 35.4302 318.999Z" fill="#FAFAFA"/>
<path d="M34.4971 319.545L45.9388 323.268L55.5142 307.344L46.2546 324.604L34.4971 319.545Z" fill="#E0E0E0"/>
<path d="M23.8596 239.738L46.3985 226.717C47.481 226.164 48.6789 225.876 49.8941 225.876C51.1093 225.876 52.3072 226.164 53.3898 226.717L56.261 228.37C57.2768 229.035 58.1211 229.931 58.7249 230.985C59.3287 232.039 59.6749 233.221 59.7351 234.435V260.477C59.6706 261.691 59.3195 262.872 58.7106 263.924C58.1017 264.976 57.2524 265.868 56.2323 266.527L33.7078 279.548C32.6252 280.101 31.4273 280.389 30.2121 280.389C28.9969 280.389 27.799 280.101 26.7164 279.548L23.8452 277.91C22.8269 277.237 21.9815 276.334 21.3779 275.272C20.7742 274.211 20.4292 273.022 20.3711 271.802V245.803C20.4375 244.589 20.7877 243.408 21.3937 242.355C21.9996 241.301 22.8443 240.405 23.8596 239.738Z" fill="url(#paint7_linear_1_1360)"/>
<path opacity="0.5" d="M23.8596 239.738L46.3985 226.717C47.481 226.164 48.6789 225.876 49.8941 225.876C51.1093 225.876 52.3072 226.164 53.3898 226.717L56.261 228.37C57.2768 229.035 58.1211 229.931 58.7249 230.985C59.3287 232.039 59.6749 233.221 59.7351 234.435V260.477C59.6706 261.691 59.3195 262.872 58.7106 263.924C58.1017 264.976 57.2524 265.868 56.2323 266.527L33.7078 279.548C32.6252 280.101 31.4273 280.389 30.2121 280.389C28.9969 280.389 27.799 280.101 26.7164 279.548L23.8452 277.91C22.8269 277.237 21.9815 276.334 21.3779 275.272C20.7742 274.211 20.4292 273.022 20.3711 271.802V245.803C20.4375 244.589 20.7877 243.408 21.3937 242.355C21.9996 241.301 22.8443 240.405 23.8596 239.738Z" fill="#FAFAFA"/>
<path d="M59.7343 234.435C59.7343 232.193 58.1695 231.287 56.2315 232.408L33.707 245.429C32.6866 246.092 31.8373 246.987 31.2285 248.041C30.6197 249.095 30.2687 250.278 30.2041 251.494V277.551C30.2041 279.778 31.7689 280.684 33.707 279.563L56.2315 266.542C57.2515 265.882 58.1009 264.99 58.7098 263.938C59.3187 262.886 59.6698 261.705 59.7343 260.491V234.435Z" fill="url(#paint8_linear_1_1360)"/>
<path d="M20.3711 271.802C20.4375 273.016 20.7877 274.197 21.3937 275.25C21.9996 276.304 22.8443 277.2 23.8596 277.867L26.7308 279.505C27.7137 280.006 28.7921 280.291 29.8939 280.341C30.9957 280.39 32.0954 280.203 33.1192 279.793C31.4683 280.411 30.248 279.491 30.248 277.493V251.494C30.2861 250.274 30.6425 249.085 31.2816 248.045L21.4334 242.296C20.8071 243.341 20.4563 244.528 20.4142 245.746L20.3711 271.802Z" fill="url(#paint9_linear_1_1360)"/>
<path opacity="0.1" d="M20.3711 271.802C20.4375 273.016 20.7877 274.197 21.3937 275.25C21.9996 276.304 22.8443 277.2 23.8596 277.867L26.7308 279.505C27.7137 280.006 28.7921 280.291 29.8939 280.341C30.9957 280.39 32.0954 280.203 33.1192 279.793C31.4683 280.411 30.248 279.491 30.248 277.493V251.494C30.2861 250.274 30.6425 249.085 31.2816 248.045L21.4334 242.296C20.8071 243.341 20.4563 244.528 20.4142 245.746L20.3711 271.802Z" fill="#020D0B"/>
<path d="M44.7472 266.053L42.4215 265.794C39.2632 265.536 35.502 264.357 35.502 259.773C35.5929 258.108 36.0745 256.489 36.9076 255.045C37.7406 253.602 38.9018 252.376 40.2968 251.466C42.3641 250.273 44.1155 250.761 44.7903 252.486C45.4705 249.928 47.0707 247.712 49.2837 246.263C51.9395 244.74 54.0786 245.976 54.0786 249.037C54.0786 253.463 50.346 259.097 47.2021 262.992L44.7472 266.053Z" fill="#FAFAFA"/>
<path d="M23.8589 174.073L46.3978 161.052C47.4803 160.499 48.6783 160.211 49.8934 160.211C51.1086 160.211 52.3066 160.499 53.3891 161.052L56.2603 162.705C57.2804 163.364 58.1297 164.256 58.7386 165.308C59.3475 166.36 59.6987 167.541 59.7632 168.755V194.797C59.6997 196.013 59.3492 197.197 58.7403 198.251C58.1314 199.306 57.2815 200.2 56.2603 200.862L33.7358 213.883C32.6532 214.436 31.4553 214.724 30.2401 214.724C29.0249 214.724 27.827 214.436 26.7445 213.883L23.8733 212.245C22.858 211.578 22.0133 210.682 21.4074 209.628C20.8014 208.575 20.4511 207.394 20.3848 206.18V180.095C20.4561 178.89 20.8073 177.718 21.4104 176.672C22.0135 175.627 22.8519 174.737 23.8589 174.073Z" fill="url(#paint10_linear_1_1360)"/>
<path opacity="0.5" d="M23.8589 174.073L46.3978 161.052C47.4803 160.499 48.6783 160.211 49.8934 160.211C51.1086 160.211 52.3066 160.499 53.3891 161.052L56.2603 162.705C57.2804 163.364 58.1297 164.256 58.7386 165.308C59.3475 166.36 59.6987 167.541 59.7632 168.755V194.797C59.6997 196.013 59.3492 197.197 58.7403 198.251C58.1314 199.306 57.2815 200.2 56.2603 200.862L33.7358 213.883C32.6532 214.436 31.4553 214.724 30.2401 214.724C29.0249 214.724 27.827 214.436 26.7445 213.883L23.8733 212.245C22.858 211.578 22.0133 210.682 21.4074 209.628C20.8014 208.575 20.4511 207.394 20.3848 206.18V180.095C20.4561 178.89 20.8073 177.718 21.4104 176.672C22.0135 175.627 22.8519 174.737 23.8589 174.073Z" fill="#FAFAFA"/>
<path d="M33.707 213.84C31.7689 214.961 30.2041 214.056 30.2041 211.828V185.786C30.2675 184.57 30.6181 183.386 31.227 182.332C31.8359 181.277 32.6858 180.383 33.707 179.721L56.2315 166.7C58.1695 165.579 59.7343 166.484 59.7343 168.712V194.754C59.6709 195.97 59.3203 197.154 58.7114 198.208C58.1025 199.262 57.2526 200.157 56.2315 200.819" fill="url(#paint11_linear_1_1360)"/>
<path d="M20.3711 206.137C20.4375 207.35 20.7877 208.532 21.3937 209.585C21.9996 210.639 22.8443 211.535 23.8596 212.202L26.7308 213.84C27.7137 214.341 28.7921 214.626 29.8939 214.675C30.9957 214.725 32.0954 214.538 33.1192 214.127C31.4683 214.745 30.248 213.826 30.248 211.828V185.786C30.2861 184.566 30.6425 183.376 31.2816 182.337L21.4334 176.588C20.8071 177.633 20.4563 178.819 20.4142 180.037L20.3711 206.137Z" fill="url(#paint12_linear_1_1360)"/>
<path opacity="0.1" d="M20.3711 206.137C20.4375 207.35 20.7877 208.532 21.3937 209.585C21.9996 210.639 22.8443 211.535 23.8596 212.202L26.7308 213.84C27.7137 214.341 28.7921 214.626 29.8939 214.675C30.9957 214.725 32.0954 214.538 33.1192 214.127C31.4683 214.745 30.248 213.826 30.248 211.828V185.786C30.2861 184.566 30.6425 183.376 31.2816 182.337L21.4334 176.588C20.8071 177.633 20.4563 178.819 20.4142 180.037L20.3711 206.137Z" fill="#020D0B"/>
<path d="M40.8564 189.882C40.8564 189.882 43.4836 183.817 43.7276 182.94C43.8581 181.439 43.8581 179.929 43.7276 178.427C43.7276 177.853 46.1251 176.229 46.9003 177.896C47.6461 179.669 47.7873 181.639 47.3023 183.501L53.1452 180.095C54.3798 179.376 54.8822 180.382 54.8966 181.187C54.8565 182.105 54.5246 182.986 53.9491 183.702C53.9491 183.702 55.1263 183.357 55.1263 184.924C55.0913 185.474 54.9462 186.013 54.6996 186.506C54.453 187 54.1099 187.439 53.6907 187.798C53.6907 187.798 54.0639 188.085 54.0783 189.235C53.9052 190.362 53.3224 191.386 52.4417 192.11C52.6357 192.563 52.7241 193.054 52.7001 193.547C52.6279 194.235 52.3971 194.897 52.0259 195.48C51.6547 196.064 51.1533 196.553 50.5611 196.91L40.9856 202.529L40.8564 189.882Z" fill="#FAFAFA"/>
<path d="M35.3149 207.502L39.5212 205.044L39.4638 190.385L35.2432 192.843L35.3149 207.502Z" fill="#FAFAFA"/>
<path d="M11.5271 97.1255L46.0676 77.1629C47.7269 76.3196 49.5615 75.8801 51.4224 75.8801C53.2832 75.8801 55.1178 76.3196 56.7771 77.1629L61.0839 79.6779C62.6475 80.6946 63.9489 82.0669 64.882 83.6829C65.8151 85.2988 66.3534 87.1127 66.453 88.9766V128.902C66.3457 130.756 65.8037 132.559 64.8709 134.164C63.9381 135.77 62.6408 137.133 61.0839 138.143L26.6296 158.149C24.9678 158.992 23.1308 159.432 21.2677 159.432C19.4045 159.432 17.5675 158.992 15.9057 158.149L11.5989 155.634C10.0396 154.614 8.74218 153.24 7.81186 151.625C6.88154 150.009 6.34446 148.197 6.24414 146.335V106.41C6.33639 104.556 6.86258 102.75 7.78026 101.137C8.69793 99.5245 9.98141 98.1503 11.5271 97.1255Z" fill="url(#paint13_linear_1_1360)"/>
<path opacity="0.1" d="M11.5271 97.1255L46.0676 77.1629C47.7269 76.3196 49.5615 75.8801 51.4224 75.8801C53.2832 75.8801 55.1178 76.3196 56.7771 77.1629L61.0839 79.6779C62.6475 80.6946 63.9489 82.0669 64.882 83.6829C65.8151 85.2988 66.3534 87.1127 66.453 88.9766V128.902C66.3457 130.756 65.8037 132.559 64.8709 134.164C63.9381 135.77 62.6408 137.133 61.0839 138.143L26.6296 158.149C24.9678 158.992 23.1308 159.432 21.2677 159.432C19.4045 159.432 17.5675 158.992 15.9057 158.149L11.5989 155.634C10.0396 154.614 8.74218 153.24 7.81186 151.625C6.88154 150.009 6.34446 148.197 6.24414 146.335V106.41C6.33639 104.556 6.86258 102.75 7.78026 101.137C8.69793 99.5245 9.98141 98.1503 11.5271 97.1255Z" fill="#020D0B"/>
<path d="M66.5108 88.7323C66.5108 86.7346 65.5346 81.7619 60.4095 84.9094C55.2845 88.0568 30.1041 102.299 26.63 104.369C24.2192 105.693 22.3156 107.781 21.2178 110.305L23.9598 113.064L66.5108 88.7323Z" fill="url(#paint14_linear_1_1360)"/>
<path opacity="0.2" d="M66.5108 88.7323C66.5108 86.7346 65.5346 81.7619 60.4095 84.9094C55.2845 88.0568 30.1041 102.299 26.63 104.369C24.2192 105.693 22.3156 107.781 21.2178 110.305L23.9598 113.064L66.5108 88.7323Z" fill="#020D0B"/>
<path d="M26.6299 158.149C23.6582 159.859 21.2607 158.479 21.2607 155.059V115.148C21.3582 113.282 21.8954 111.465 22.8286 109.846C23.7618 108.228 25.0644 106.853 26.6299 105.835L61.0842 85.8723C64.0559 84.162 66.4533 85.5561 66.4533 88.9766V128.902C66.346 130.756 65.8039 132.559 64.8711 134.164C63.9384 135.77 62.641 137.133 61.0842 138.143" fill="url(#paint15_linear_1_1360)"/>
<path opacity="0.1" d="M26.6299 158.149C23.6582 159.859 21.2607 158.479 21.2607 155.059V115.148C21.3582 113.282 21.8954 111.465 22.8286 109.846C23.7618 108.228 25.0644 106.853 26.6299 105.835L61.0842 85.8723C64.0559 84.162 66.4533 85.5561 66.4533 88.9766V128.902C66.346 130.756 65.8039 132.559 64.8711 134.164C63.9384 135.77 62.641 137.133 61.0842 138.143" fill="#020D0B"/>
<path d="M6.17266 146.335C6.27298 148.197 6.81005 150.009 7.74037 151.625C8.67069 153.24 9.96809 154.614 11.5274 155.634L15.8342 158.149C17.3451 158.911 19.0003 159.343 20.6906 159.418C22.3808 159.492 24.0675 159.206 25.6393 158.58C23.1127 159.543 21.189 158.12 21.189 155.059V115.148C21.2544 113.279 21.7981 111.458 22.7682 109.859L7.68003 101.135C6.71386 102.735 6.17499 104.556 6.11523 106.424L6.17266 146.335Z" fill="url(#paint16_linear_1_1360)"/>
<path opacity="0.2" d="M6.17266 146.335C6.27298 148.197 6.81005 150.009 7.74037 151.625C8.67069 153.24 9.96809 154.614 11.5274 155.634L15.8342 158.149C17.3451 158.911 19.0003 159.343 20.6906 159.418C22.3808 159.492 24.0675 159.206 25.6393 158.58C23.1127 159.543 21.189 158.12 21.189 155.059V115.148C21.2544 113.279 21.7981 111.458 22.7682 109.859L7.68003 101.135C6.71386 102.735 6.17499 104.556 6.11523 106.424L6.17266 146.335Z" fill="#020D0B"/>
<path d="M44.9194 101.178L49.3985 109.083L59.4477 104.973C60.3952 104.584 60.7828 105.706 60.0937 106.884L52.8439 119.244L54.5523 129.793C54.7102 130.799 53.7197 132.193 52.8727 132.179L43.8571 131.906L34.8846 142.541C34.0376 143.547 33.0471 143.288 33.205 142.095L34.9421 129.52L27.7641 125.539C27.075 125.165 27.4626 123.599 28.4101 122.894L38.4593 115.421L42.9383 102.328C43.2685 101.135 44.4888 100.431 44.9194 101.178Z" fill="#FAFAFA"/>
<path d="M530.525 283.558C513.297 291.765 485.447 291.765 468.248 283.558C451.05 275.352 451.021 262 468.248 253.851C485.476 245.702 513.326 245.645 530.525 253.851C547.723 262.058 547.666 275.352 530.525 283.558Z" fill="#E0E0E0"/>
<path d="M138.895 378.83C139.048 380.92 139.691 382.944 140.77 384.739C141.85 386.534 143.337 388.05 145.111 389.163L319.292 489.767C321.218 490.745 323.348 491.255 325.508 491.255C327.668 491.255 329.797 490.745 331.724 489.767L570.033 352.012C571.911 351.019 573.483 349.532 574.58 347.711C575.677 345.891 576.256 343.805 576.256 341.678C576.256 339.552 575.677 337.466 574.58 335.645C573.483 333.824 571.911 332.337 570.033 331.345L395.866 230.741C393.94 229.763 391.81 229.253 389.65 229.253C387.49 229.253 385.36 229.763 383.434 230.741L145.125 368.496C143.349 369.608 141.859 371.123 140.777 372.918C139.694 374.713 139.05 376.738 138.895 378.83Z" fill="#37474F"/>
<path d="M210.76 330.554L145.11 368.496C143.232 369.489 141.66 370.976 140.563 372.796C139.466 374.617 138.887 376.703 138.887 378.83C138.887 380.956 139.466 383.042 140.563 384.863C141.66 386.684 143.232 388.171 145.11 389.163L319.291 489.767C321.207 490.768 323.347 491.263 325.507 491.204V330.554H210.76Z" fill="#263238"/>
<path d="M133.066 368.712C131.333 367.538 129.901 365.97 128.888 364.137C127.876 362.304 127.31 360.257 127.237 358.163V150.072C127.352 147.912 127.974 145.81 129.055 143.936C130.135 142.063 131.642 140.472 133.453 139.293L371.762 1.60984C373.561 0.480274 375.633 -0.137264 377.757 -0.17642C379.88 -0.215577 381.973 0.325134 383.812 1.3876C385.652 2.45007 387.167 3.99415 388.195 5.85392C389.224 7.71369 389.727 9.81887 389.65 11.9433V219.963C389.534 222.122 388.911 224.224 387.831 226.097C386.751 227.97 385.244 229.561 383.434 230.742L145.125 368.496C143.274 369.481 141.217 370.013 139.121 370.05C137.026 370.088 134.951 369.629 133.066 368.712Z" fill="#455A64"/>
<path d="M156.394 159.701L129.118 143.892C128.004 145.745 127.381 147.852 127.309 150.014V358.163C127.234 360.285 127.737 362.388 128.765 364.245C129.793 366.103 131.307 367.645 133.143 368.707C134.98 369.769 137.071 370.311 139.192 370.273C141.313 370.236 143.384 369.622 145.182 368.496L172.358 352.788L156.394 159.701Z" fill="#263238"/>
<path d="M138.895 156.827V364.903C138.895 368.87 141.68 370.48 145.111 368.496L383.42 230.741C385.23 229.561 386.737 227.97 387.817 226.097C388.897 224.224 389.52 222.122 389.636 219.962V11.8856C389.636 7.91894 386.851 6.30929 383.42 8.29261L145.111 146.033C143.301 147.217 141.795 148.811 140.715 150.687C139.635 152.562 139.011 154.665 138.895 156.827Z" fill="#37474F"/>
<path d="M145.111 375.682L319.291 476.358C321.218 477.336 323.348 477.846 325.508 477.846C327.668 477.846 329.797 477.336 331.724 476.358L570.033 338.603C573.478 336.619 573.478 333.4 570.033 331.417L395.866 230.741C393.94 229.763 391.81 229.253 389.65 229.253C387.49 229.253 385.36 229.763 383.434 230.741L145.125 368.496C141.679 370.48 141.68 373.699 145.111 375.682Z" fill="#455A64"/>
<path d="M148.455 157.588L380.089 23.7137C382.142 22.5208 383.821 23.4837 383.821 25.8695V205.993C383.749 207.288 383.373 208.549 382.725 209.672C382.077 210.795 381.174 211.75 380.089 212.46L148.455 346.335C146.388 347.528 144.723 346.565 144.723 344.179V164.012C144.798 162.724 145.175 161.471 145.824 160.355C146.472 159.239 147.374 158.291 148.455 157.588Z" fill="#FAFAFA"/>
<path d="M165.324 370.293L386.535 242.383C387.498 241.894 388.563 241.639 389.643 241.639C390.723 241.639 391.787 241.894 392.751 242.383L404.078 248.922C404.453 249.049 404.778 249.291 405.009 249.613C405.24 249.935 405.364 250.322 405.364 250.718C405.364 251.115 405.24 251.501 405.009 251.823C404.778 252.146 404.453 252.387 404.078 252.515L182.824 380.411C181.86 380.899 180.795 381.154 179.715 381.154C178.636 381.154 177.571 380.899 176.607 380.411L165.324 373.843C164.963 373.707 164.653 373.464 164.434 373.147C164.215 372.83 164.098 372.453 164.098 372.068C164.098 371.682 164.215 371.306 164.434 370.989C164.653 370.672 164.963 370.429 165.324 370.293Z" fill="#263238"/>
<path d="M194.481 387.151L415.692 259.241C416.655 258.752 417.72 258.498 418.8 258.498C419.88 258.498 420.945 258.752 421.908 259.241L491.506 299.482C491.881 299.61 492.206 299.851 492.437 300.174C492.668 300.496 492.792 300.882 492.792 301.279C492.792 301.675 492.668 302.062 492.437 302.384C492.206 302.706 491.881 302.948 491.506 303.075L270.553 430.784C269.587 431.273 268.52 431.528 267.438 431.528C266.356 431.528 265.288 431.273 264.323 430.784L194.495 390.715C194.123 390.59 193.799 390.351 193.57 390.033C193.34 389.714 193.215 389.331 193.214 388.938C193.212 388.545 193.334 388.162 193.561 387.841C193.788 387.521 194.11 387.279 194.481 387.151Z" fill="#263238"/>
<path d="M392.779 316.815L399.713 312.805C400 312.633 399.986 312.345 399.713 312.173L391.703 307.545C391.532 307.457 391.342 307.411 391.15 307.411C390.958 307.411 390.768 307.457 390.597 307.545L383.678 311.555C383.376 311.713 383.391 312 383.678 312.187L391.688 316.815C391.857 316.901 392.044 316.945 392.234 316.945C392.423 316.945 392.61 316.901 392.779 316.815ZM379.112 300.905L372.193 304.857C371.891 305.03 371.906 305.317 372.193 305.504L380.204 310.132C380.375 310.217 380.565 310.261 380.756 310.261C380.948 310.261 381.137 310.217 381.309 310.132L388.243 306.122C388.53 305.95 388.516 305.662 388.243 305.49L380.232 300.848C380.054 300.769 379.86 300.733 379.666 300.743C379.471 300.753 379.282 300.809 379.112 300.905ZM356.732 313.84L345.017 320.666C344.716 320.839 344.744 321.126 345.017 321.313L353.028 325.941C353.2 326.026 353.389 326.07 353.58 326.07C353.772 326.07 353.961 326.026 354.133 325.941L365.848 319.172C366.135 318.999 366.12 318.712 365.848 318.539L357.837 313.897C357.669 313.803 357.483 313.749 357.291 313.739C357.099 313.729 356.908 313.764 356.732 313.84ZM368.992 306.754L362.058 310.764C361.77 310.922 361.785 311.21 362.058 311.397L370.068 316.024C370.239 316.113 370.429 316.159 370.621 316.159C370.813 316.159 371.003 316.113 371.174 316.024L378.093 312.015C378.395 311.842 378.38 311.555 378.093 311.382L370.083 306.754C369.913 306.669 369.727 306.624 369.537 306.624C369.347 306.624 369.161 306.669 368.992 306.754ZM341.816 322.463L334.896 326.415C334.595 326.588 334.623 326.875 334.896 327.062L342.907 331.69C343.078 331.778 343.267 331.824 343.459 331.824C343.652 331.824 343.841 331.778 344.012 331.69L350.946 327.694C351.233 327.522 351.219 327.234 350.946 327.062L342.935 322.42C342.758 322.339 342.565 322.301 342.37 322.309C342.176 322.316 341.986 322.369 341.816 322.463ZM331.695 328.312L324.775 332.308C324.474 332.48 324.488 332.768 324.775 332.954L332.786 337.582C332.958 337.667 333.147 337.711 333.338 337.711C333.53 337.711 333.719 337.667 333.891 337.582L340.825 333.572C341.112 333.4 341.098 333.113 340.825 332.94L332.814 328.298C332.64 328.213 332.447 328.17 332.253 328.172C332.059 328.175 331.867 328.223 331.695 328.312ZM363.206 347.14L370.126 343.13C370.413 342.957 370.398 342.67 370.126 342.497L362.072 337.913C361.901 337.825 361.712 337.779 361.519 337.779C361.327 337.779 361.137 337.825 360.967 337.913L354.047 341.923C353.745 342.081 353.774 342.368 354.047 342.555L362.058 347.183C362.237 347.272 362.437 347.314 362.637 347.307C362.838 347.299 363.033 347.242 363.206 347.14ZM353.071 352.989L360.005 348.979C360.292 348.807 360.277 348.534 360.005 348.347L351.951 343.662C351.78 343.573 351.591 343.527 351.398 343.527C351.206 343.527 351.016 343.573 350.846 343.662L343.897 347.7C343.596 347.858 343.625 348.146 343.897 348.332L351.908 352.96C352.084 353.063 352.282 353.119 352.486 353.124C352.689 353.129 352.89 353.083 353.071 352.989ZM342.95 358.838L349.884 354.829C350.171 354.67 350.157 354.383 349.884 354.196L341.873 349.568C341.702 349.48 341.513 349.434 341.32 349.434C341.128 349.434 340.939 349.48 340.768 349.568L333.848 353.549C333.547 353.722 333.561 354.009 333.848 354.182L341.859 358.81C342.026 358.9 342.211 358.95 342.401 358.955C342.59 358.96 342.778 358.92 342.95 358.838ZM332.901 364.688L339.835 360.678C340.122 360.52 340.107 360.232 339.835 360.046L331.824 355.418C331.653 355.33 331.463 355.284 331.271 355.284C331.079 355.284 330.889 355.33 330.719 355.418L323.684 359.471C323.383 359.643 323.397 359.931 323.684 360.103L331.695 364.731C331.873 364.817 332.069 364.859 332.267 364.851C332.465 364.844 332.658 364.787 332.829 364.688H332.901ZM382.658 322.664L389.578 318.654C389.879 318.482 389.865 318.209 389.578 318.022L381.567 313.394C381.396 313.306 381.207 313.26 381.015 313.26C380.822 313.26 380.633 313.306 380.462 313.394L373.542 317.404C373.241 317.577 373.255 317.85 373.542 318.036L381.553 322.664C381.724 322.752 381.913 322.798 382.106 322.798C382.298 322.798 382.487 322.752 382.658 322.664ZM373.327 341.348L388.774 332.408C389.061 332.236 389.047 331.948 388.774 331.776L369.322 320.537C369.151 320.449 368.961 320.403 368.769 320.403C368.577 320.403 368.387 320.449 368.216 320.537L360.234 325.15C359.933 325.323 359.947 325.61 360.234 325.797L370.542 331.747C370.858 331.934 370.872 332.221 370.542 332.38L364.154 336.088C363.866 336.246 363.881 336.533 364.154 336.72L372.164 341.348C372.348 341.433 372.55 341.473 372.753 341.463C372.955 341.453 373.152 341.394 373.327 341.29V341.348ZM321.574 334.162L314.654 338.171C314.353 338.33 314.367 338.617 314.654 338.804L322.665 343.432C322.837 343.517 323.026 343.561 323.218 343.561C323.409 343.561 323.598 343.517 323.77 343.432L330.704 339.422C330.991 339.249 330.977 338.962 330.704 338.789L322.694 334.162C322.521 334.071 322.329 334.024 322.134 334.024C321.939 334.024 321.747 334.071 321.574 334.162ZM311.525 340.011L304.591 344.021C304.304 344.193 304.318 344.466 304.591 344.653L312.601 349.281C312.772 349.369 312.962 349.415 313.154 349.415C313.346 349.415 313.536 349.369 313.707 349.281L320.626 345.271C320.928 345.099 320.913 344.811 320.626 344.639L312.616 340.011C312.438 339.913 312.238 339.862 312.034 339.862C311.831 339.862 311.631 339.913 311.453 340.011H311.525ZM260.934 405.619C261.105 405.707 261.295 405.753 261.487 405.753C261.679 405.753 261.869 405.707 262.04 405.619L268.974 401.609C269.261 401.437 269.246 401.149 268.974 400.977L260.963 396.349C260.792 396.261 260.602 396.215 260.41 396.215C260.218 396.215 260.028 396.261 259.857 396.349L252.938 400.359C252.636 400.531 252.651 400.804 252.938 400.991L260.934 405.619ZM230.485 386.777L223.551 390.787C223.264 390.945 223.278 391.233 223.551 391.419L231.562 396.047C231.734 396.132 231.923 396.176 232.115 396.176C232.306 396.176 232.495 396.132 232.667 396.047L239.587 392.037C239.888 391.865 239.874 391.578 239.587 391.405L231.576 386.777C231.407 386.691 231.22 386.647 231.031 386.647C230.841 386.647 230.654 386.691 230.485 386.777ZM246.779 400.503C246.95 400.591 247.14 400.637 247.332 400.637C247.524 400.637 247.714 400.591 247.885 400.503L254.804 396.493C255.106 396.32 255.077 396.047 254.804 395.86L246.808 391.233C246.637 391.144 246.448 391.098 246.255 391.098C246.063 391.098 245.873 391.144 245.703 391.233L238.769 395.242C238.481 395.415 238.496 395.688 238.769 395.875L246.779 400.503ZM278.75 409.126L285.684 405.116C285.971 404.943 285.957 404.656 285.684 404.484L277.673 399.841C277.501 399.756 277.312 399.712 277.121 399.712C276.929 399.712 276.74 399.756 276.568 399.841L269.648 403.851C269.347 404.009 269.361 404.297 269.648 404.484L277.659 409.111C277.82 409.206 278.002 409.262 278.189 409.275C278.376 409.287 278.563 409.256 278.736 409.183L278.75 409.126ZM267.524 414.946C267.694 415.035 267.884 415.081 268.076 415.081C268.269 415.081 268.458 415.035 268.629 414.946L275.563 410.937C275.85 410.764 275.836 410.477 275.563 410.304L267.552 405.676C267.381 405.588 267.192 405.542 267 405.542C266.807 405.542 266.618 405.588 266.447 405.676L259.47 409.772C259.168 409.931 259.183 410.218 259.47 410.405L267.524 414.946ZM240.534 381.029L233.6 385.024C233.313 385.196 233.328 385.484 233.6 385.671L241.611 390.298C241.783 390.383 241.972 390.428 242.164 390.428C242.355 390.428 242.545 390.383 242.716 390.298L249.636 386.289C249.938 386.116 249.923 385.829 249.636 385.656L241.697 381.029C241.518 380.934 241.318 380.885 241.116 380.885C240.913 380.885 240.714 380.934 240.534 381.029ZM291.211 351.71L284.277 355.72C283.99 355.892 284.004 356.179 284.277 356.352L292.288 360.98C292.459 361.068 292.648 361.114 292.84 361.114C293.033 361.114 293.222 361.068 293.393 360.98L300.313 356.97C300.614 356.812 300.585 356.524 300.313 356.338L292.316 351.71C292.144 351.625 291.955 351.581 291.764 351.581C291.572 351.581 291.383 351.625 291.211 351.71ZM250.713 375.122L243.793 379.117C243.492 379.29 243.506 379.577 243.793 379.764L251.804 384.392C251.976 384.477 252.165 384.521 252.356 384.521C252.548 384.521 252.737 384.477 252.909 384.392L259.843 380.396C260.13 380.224 260.116 379.936 259.843 379.749L251.832 375.122C251.659 375.034 251.467 374.989 251.273 374.989C251.078 374.989 250.887 375.034 250.713 375.122ZM301.332 345.86L294.398 349.87C294.111 350.043 294.125 350.316 294.398 350.503L302.409 355.13C302.579 355.219 302.769 355.265 302.961 355.265C303.154 355.265 303.343 355.219 303.514 355.13L310.434 351.121C310.735 350.948 310.721 350.675 310.434 350.488L302.423 345.86C302.254 345.775 302.067 345.73 301.877 345.73C301.688 345.73 301.501 345.775 301.332 345.86ZM281.076 357.559L274.156 361.569C273.855 361.741 273.883 362.029 274.156 362.201L282.167 366.843C282.339 366.928 282.528 366.973 282.719 366.973C282.911 366.973 283.1 366.928 283.272 366.843L290.192 362.848C290.493 362.676 290.464 362.388 290.192 362.201L282.167 357.588C281.999 357.501 281.813 357.453 281.624 357.448C281.435 357.443 281.248 357.481 281.076 357.559ZM270.955 363.423L264.035 367.418C263.734 367.591 263.762 367.878 264.035 368.051L272.117 372.693C272.287 372.778 272.474 372.822 272.663 372.822C272.852 372.822 273.039 372.778 273.209 372.693L280.142 368.697C280.43 368.525 280.415 368.238 280.142 368.051L272.117 363.437C271.941 363.337 271.741 363.283 271.538 363.281C271.335 363.278 271.134 363.327 270.955 363.423ZM260.834 369.272L253.914 373.268C253.613 373.44 253.641 373.728 253.914 373.914L261.925 378.542C262.097 378.627 262.286 378.671 262.477 378.671C262.669 378.671 262.858 378.627 263.03 378.542L269.964 374.547C270.251 374.374 270.237 374.087 269.964 373.9L261.953 369.272C261.78 369.185 261.588 369.14 261.394 369.14C261.199 369.14 261.007 369.185 260.834 369.272ZM312.587 376.386L319.492 372.405C319.794 372.233 319.779 371.945 319.492 371.759L311.482 367.131C311.311 367.043 311.121 366.997 310.929 366.997C310.737 366.997 310.547 367.043 310.376 367.131L303.442 371.126C303.155 371.299 303.169 371.586 303.442 371.773L311.453 376.401C311.63 376.488 311.824 376.532 312.022 376.53C312.219 376.527 312.412 376.478 312.587 376.386ZM401.493 287.97L394.56 291.923C394.272 292.081 394.287 292.368 394.56 292.555L402.57 297.183C402.742 297.268 402.931 297.312 403.123 297.312C403.315 297.312 403.504 297.268 403.676 297.183L410.595 293.173C410.897 293 410.882 292.713 410.595 292.541L402.584 287.913C402.411 287.836 402.222 287.801 402.032 287.811C401.842 287.821 401.658 287.875 401.493 287.97ZM389.233 295.056L382.314 299.109C382.012 299.281 382.027 299.568 382.314 299.755L390.31 304.383C390.481 304.471 390.671 304.517 390.863 304.517C391.055 304.517 391.245 304.471 391.416 304.383L398.349 300.388C398.637 300.215 398.622 299.928 398.349 299.755L390.339 295.113C390.171 295.019 389.985 294.965 389.793 294.955C389.601 294.945 389.41 294.98 389.233 295.056ZM411.614 282.121L404.68 286.174C404.393 286.346 404.408 286.634 404.68 286.821L412.691 291.448C412.863 291.533 413.052 291.577 413.244 291.577C413.435 291.577 413.625 291.533 413.796 291.448L420.716 287.439C421.018 287.266 421.003 286.979 420.716 286.806L412.705 282.164C412.539 282.075 412.354 282.024 412.165 282.017C411.976 282.009 411.788 282.045 411.614 282.121ZM359.215 336.217L366.149 332.164C366.436 331.992 366.422 331.704 366.149 331.532L358.138 326.904C357.968 326.816 357.778 326.77 357.586 326.77C357.393 326.77 357.204 326.816 357.033 326.904L350.099 330.899C349.812 331.072 349.826 331.359 350.099 331.546L358.11 336.174C358.278 336.265 358.466 336.317 358.657 336.325C358.849 336.332 359.04 336.295 359.215 336.217ZM422.855 276.286C422.683 276.201 422.494 276.157 422.302 276.157C422.111 276.157 421.922 276.201 421.75 276.286L414.83 280.281C414.529 280.454 414.543 280.741 414.83 280.928L422.841 285.556C423.012 285.644 423.201 285.69 423.393 285.69C423.586 285.69 423.775 285.644 423.946 285.556L430.88 281.56C431.167 281.388 431.153 281.101 430.88 280.914L422.855 276.286ZM322.708 370.537L329.627 366.542C329.929 366.369 329.915 366.082 329.627 365.895L321.617 361.267C321.445 361.182 321.256 361.138 321.064 361.138C320.872 361.138 320.683 361.182 320.511 361.267L313.549 365.219C313.262 365.392 313.276 365.679 313.549 365.852L321.559 370.494C321.733 370.593 321.929 370.648 322.128 370.656C322.328 370.663 322.527 370.622 322.708 370.537ZM446.844 298.792L453.778 294.783C454.065 294.61 454.051 294.323 453.778 294.15L445.767 289.522C445.596 289.434 445.407 289.388 445.215 289.388C445.022 289.388 444.833 289.434 444.662 289.522L437.728 293.532C437.441 293.69 437.455 293.978 437.728 294.165L445.738 298.792C445.909 298.881 446.099 298.927 446.291 298.927C446.484 298.927 446.673 298.881 446.844 298.792ZM425.31 298.031L432.23 294.021C432.531 293.848 432.517 293.561 432.23 293.389L424.219 288.761C424.048 288.673 423.859 288.627 423.666 288.627C423.474 288.627 423.284 288.673 423.113 288.761L416.18 292.771C415.892 292.929 415.907 293.216 416.18 293.403L424.19 298.031C424.359 298.117 424.546 298.161 424.736 298.161C424.925 298.161 425.112 298.117 425.281 298.031H425.31ZM434.34 282.897C434.168 282.812 433.979 282.768 433.787 282.768C433.595 282.768 433.406 282.812 433.234 282.897L426.315 286.907C426.013 287.065 426.028 287.352 426.315 287.539L434.325 292.167C434.497 292.252 434.687 292.296 434.878 292.296C435.07 292.296 435.259 292.252 435.431 292.167L442.365 288.157C442.652 287.985 442.638 287.697 442.365 287.525L434.34 282.897ZM436.465 281.675L455.874 292.914C456.046 292.999 456.235 293.043 456.427 293.043C456.618 293.043 456.807 292.999 456.979 292.914L463.913 288.904C464.2 288.732 464.186 288.445 463.913 288.272L444.389 277.048C444.217 276.963 444.028 276.919 443.836 276.919C443.645 276.919 443.456 276.963 443.284 277.048L436.364 281.043C436.077 281.201 436.091 281.489 436.407 281.675H436.465ZM412.993 294.61L406.059 298.62C405.771 298.778 405.786 299.065 406.059 299.252L414.069 303.88C414.24 303.968 414.43 304.014 414.622 304.014C414.814 304.014 415.004 303.968 415.175 303.88L422.094 299.87C422.396 299.698 422.381 299.41 422.094 299.238L414.084 294.61C413.91 294.51 413.714 294.455 413.513 294.45C413.312 294.445 413.114 294.49 412.935 294.581L412.993 294.61ZM336.719 338.617L329.785 342.627C329.498 342.799 329.513 343.072 329.785 343.259L337.796 347.887C337.967 347.975 338.156 348.021 338.349 348.021C338.541 348.021 338.73 347.975 338.901 347.887L345.821 343.877C346.122 343.705 346.108 343.432 345.821 343.245L337.81 338.617C337.641 338.531 337.454 338.486 337.265 338.486C337.075 338.486 336.888 338.531 336.719 338.617ZM435.589 304.613C435.76 304.701 435.949 304.747 436.142 304.747C436.334 304.747 436.523 304.701 436.694 304.613L443.614 300.603C443.915 300.431 443.901 300.158 443.614 299.971L435.603 295.343C435.432 295.255 435.243 295.209 435.05 295.209C434.858 295.209 434.669 295.255 434.498 295.343L427.564 299.353C427.277 299.525 427.291 299.798 427.564 299.985L435.589 304.613ZM346.84 332.768L339.906 336.777C339.619 336.935 339.634 337.223 339.906 337.41L347.917 342.038C348.088 342.126 348.277 342.172 348.47 342.172C348.662 342.172 348.851 342.126 349.022 342.038L355.942 338.028C356.243 337.855 356.229 337.568 355.942 337.395L347.931 332.768C347.766 332.686 347.584 332.644 347.4 332.644C347.216 332.644 347.034 332.686 346.869 332.768H346.84ZM270.983 399.712C271.155 399.797 271.344 399.841 271.536 399.841C271.728 399.841 271.917 399.797 272.089 399.712L279.023 395.702C279.31 395.53 279.295 395.242 279.023 395.07L271.012 390.442C270.841 390.354 270.652 390.308 270.459 390.308C270.267 390.308 270.078 390.354 269.907 390.442L262.987 394.452C262.686 394.61 262.7 394.897 262.987 395.084L270.983 399.712ZM255.766 385.34L248.832 389.35C248.545 389.508 248.559 389.795 248.832 389.982L256.843 394.61C257.015 394.695 257.204 394.739 257.395 394.739C257.587 394.739 257.776 394.695 257.948 394.61L264.868 390.6C265.169 390.428 265.155 390.14 264.868 389.968L256.857 385.34C256.681 385.267 256.491 385.237 256.301 385.252C256.112 385.267 255.928 385.327 255.766 385.426V385.34ZM282.167 393.963L289.101 389.954C289.388 389.781 289.373 389.494 289.101 389.321L281.09 384.693C280.919 384.605 280.73 384.559 280.537 384.559C280.345 384.559 280.155 384.605 279.985 384.693L273.065 388.689C272.764 388.861 272.792 389.149 273.065 389.336L281.076 393.963C281.245 394.048 281.432 394.092 281.621 394.092C281.81 394.092 281.997 394.048 282.167 393.963ZM292.302 388.114L299.222 384.104C299.523 383.932 299.494 383.644 299.222 383.457L291.211 378.83C291.039 378.745 290.85 378.701 290.658 378.701C290.467 378.701 290.277 378.745 290.105 378.83L283.186 382.825C282.899 382.998 282.913 383.285 283.186 383.472L291.197 388.1C291.374 388.192 291.571 388.24 291.771 388.24C291.971 388.24 292.168 388.192 292.345 388.1L292.302 388.114ZM302.351 382.25L309.271 378.255C309.572 378.082 309.543 377.795 309.271 377.608L301.274 372.98C301.103 372.895 300.913 372.851 300.722 372.851C300.53 372.851 300.341 372.895 300.169 372.98L293.235 376.976C292.948 377.148 292.962 377.436 293.235 377.622L301.246 382.25C301.433 382.352 301.644 382.405 301.858 382.402C302.071 382.4 302.281 382.342 302.466 382.236L302.351 382.25ZM265.887 379.591L258.953 383.587C258.666 383.759 258.68 384.047 258.953 384.234L266.964 388.861C267.136 388.946 267.325 388.99 267.516 388.99C267.708 388.99 267.897 388.946 268.069 388.861L274.989 384.852C275.29 384.679 275.276 384.392 274.989 384.219L266.992 379.591C266.82 379.506 266.631 379.462 266.44 379.462C266.248 379.462 266.059 379.506 265.887 379.591ZM276.008 373.742L269.074 377.737C268.787 377.91 268.801 378.197 269.074 378.384L277.085 383.012C277.256 383.1 277.445 383.146 277.637 383.146C277.83 383.146 278.019 383.1 278.19 383.012L285.124 379.016C285.411 378.844 285.397 378.557 285.124 378.37L277.113 373.742C276.943 373.655 276.754 373.608 276.562 373.606C276.371 373.603 276.181 373.645 276.008 373.728V373.742ZM316.506 350.33L309.572 354.34C309.271 354.512 309.299 354.8 309.572 354.972L317.583 359.6C317.754 359.688 317.943 359.734 318.136 359.734C318.328 359.734 318.517 359.688 318.688 359.6L325.608 355.59C325.909 355.432 325.881 355.145 325.608 354.958L317.597 350.33C317.429 350.243 317.243 350.197 317.053 350.194C316.864 350.192 316.677 350.233 316.506 350.316V350.33ZM306.371 356.194L299.394 360.175C299.092 360.347 299.121 360.635 299.394 360.807L307.39 365.449C307.562 365.534 307.751 365.578 307.943 365.578C308.134 365.578 308.324 365.534 308.495 365.449L315.429 361.454C315.717 361.282 315.702 360.994 315.429 360.807L307.419 356.179C307.255 356.101 307.076 356.06 306.895 356.06C306.713 356.06 306.534 356.101 306.371 356.179V356.194ZM326.67 344.466L319.736 348.476C319.449 348.649 319.463 348.936 319.736 349.109L327.747 353.736C327.918 353.825 328.107 353.871 328.3 353.871C328.492 353.871 328.681 353.825 328.852 353.736L335.772 349.727C336.073 349.568 336.045 349.281 335.772 349.094L327.776 344.466C327.605 344.378 327.415 344.332 327.223 344.332C327.031 344.332 326.841 344.378 326.67 344.466ZM286.172 367.878L279.252 371.874C278.951 372.046 278.965 372.334 279.252 372.52L287.263 377.148C287.435 377.233 287.624 377.277 287.816 377.277C288.007 377.277 288.197 377.233 288.368 377.148L295.302 373.153C295.589 372.98 295.575 372.693 295.302 372.506L287.292 367.878C287.112 367.784 286.913 367.734 286.71 367.734C286.508 367.734 286.308 367.784 286.129 367.878H286.172ZM296.293 362.029L289.345 366.024C289.043 366.197 289.058 366.484 289.345 366.671L297.355 371.299C297.527 371.384 297.716 371.428 297.908 371.428C298.1 371.428 298.289 371.384 298.461 371.299L305.395 367.303C305.682 367.131 305.667 366.843 305.395 366.657L297.384 362.029C297.209 361.936 297.015 361.887 296.817 361.887C296.619 361.887 296.424 361.936 296.25 362.029H296.293ZM288.9 403.334L295.834 399.324C296.121 399.152 296.106 398.864 295.834 398.692L287.823 394.05C287.651 393.965 287.462 393.92 287.27 393.92C287.078 393.92 286.889 393.965 286.717 394.05L279.798 398.045C279.496 398.217 279.525 398.505 279.798 398.692L287.794 403.319C287.959 403.4 288.14 403.443 288.324 403.445C288.507 403.448 288.689 403.41 288.857 403.334H288.9ZM229.509 397.326L221.498 392.699C221.327 392.61 221.138 392.564 220.946 392.564C220.753 392.564 220.564 392.61 220.393 392.699L213.459 396.708C213.172 396.866 213.186 397.154 213.459 397.341L221.47 401.968C221.641 402.057 221.83 402.103 222.022 402.103C222.215 402.103 222.404 402.057 222.575 401.968L229.495 397.959C229.796 397.786 229.767 397.499 229.466 397.326H229.509ZM244.669 401.782L236.658 397.154C236.487 397.066 236.298 397.02 236.106 397.02C235.913 397.02 235.724 397.066 235.553 397.154L224.901 403.319C224.614 403.492 224.628 403.765 224.901 403.952L232.911 408.58C233.082 408.668 233.272 408.714 233.464 408.714C233.656 408.714 233.846 408.668 234.017 408.58L244.669 402.414C244.97 402.242 244.942 401.968 244.626 401.782H244.669ZM217.22 388.373L209.21 383.745C209.039 383.657 208.849 383.611 208.657 383.611C208.465 383.611 208.275 383.657 208.104 383.745L199.577 388.674C199.275 388.847 199.304 389.134 199.577 389.321L207.587 393.949C207.759 394.034 207.948 394.078 208.14 394.078C208.332 394.078 208.521 394.034 208.693 393.949L217.206 389.019C217.565 388.847 217.565 388.559 217.177 388.373H217.22ZM223.752 384.593C223.923 384.681 224.113 384.727 224.305 384.727C224.497 384.727 224.687 384.681 224.858 384.593L231.777 380.583C232.079 380.411 232.064 380.137 231.777 379.951L223.767 375.323C223.596 375.235 223.406 375.189 223.214 375.189C223.022 375.189 222.832 375.235 222.661 375.323L215.727 379.333C215.44 379.505 215.454 379.778 215.727 379.965L223.752 384.593ZM258.738 406.898L250.727 402.27C250.556 402.182 250.367 402.136 250.174 402.136C249.982 402.136 249.793 402.182 249.622 402.27L236.299 409.974C236.012 410.146 236.027 410.434 236.299 410.606L244.31 415.234C244.481 415.322 244.67 415.368 244.863 415.368C245.055 415.368 245.244 415.322 245.415 415.234L258.738 407.53C259.068 407.315 259.054 407.042 258.738 406.898ZM265.385 416.283L257.374 411.655C257.203 411.567 257.013 411.521 256.821 411.521C256.629 411.521 256.439 411.567 256.269 411.655L247.712 416.513C247.425 416.685 247.44 416.973 247.712 417.145L255.723 421.787C255.895 421.872 256.084 421.916 256.276 421.916C256.467 421.916 256.656 421.872 256.828 421.787L265.356 416.858C265.715 416.7 265.7 416.427 265.385 416.24V416.283ZM298.977 341.132C299.146 341.22 299.333 341.266 299.523 341.266C299.713 341.266 299.9 341.22 300.069 341.132L307.002 337.122C307.29 336.964 307.275 336.677 307.002 336.49L298.992 331.862C298.821 331.774 298.631 331.728 298.439 331.728C298.247 331.728 298.057 331.774 297.886 331.862L290.967 335.872C290.665 336.044 290.694 336.332 290.967 336.504L298.977 341.132ZM278.721 352.845C278.893 352.93 279.082 352.974 279.274 352.974C279.466 352.974 279.655 352.93 279.827 352.845L286.761 348.835C287.048 348.677 287.033 348.39 286.761 348.203L278.75 343.575C278.578 343.49 278.389 343.446 278.197 343.446C278.006 343.446 277.816 343.49 277.645 343.575L270.682 347.528C270.38 347.7 270.395 347.988 270.682 348.16L278.721 352.845ZM233.83 378.787C234.002 378.871 234.191 378.916 234.383 378.916C234.575 378.916 234.764 378.871 234.936 378.787L241.855 374.777C242.157 374.604 242.142 374.317 241.855 374.144L233.816 369.531C233.645 369.443 233.455 369.397 233.263 369.397C233.071 369.397 232.881 369.443 232.71 369.531L225.776 373.541C225.489 373.699 225.504 373.986 225.776 374.173L233.83 378.787ZM288.842 346.981C289.013 347.07 289.203 347.116 289.395 347.116C289.587 347.116 289.777 347.07 289.948 346.981L296.882 342.972C297.169 342.814 297.154 342.526 296.882 342.339L288.871 337.712C288.7 337.623 288.51 337.577 288.318 337.577C288.126 337.577 287.936 337.623 287.765 337.712L280.846 341.721C280.544 341.894 280.573 342.181 280.846 342.354L288.842 346.981ZM268.6 358.695C268.772 358.779 268.961 358.824 269.153 358.824C269.345 358.824 269.534 358.779 269.706 358.695L276.64 354.699C276.927 354.527 276.912 354.239 276.64 354.052L268.586 349.41C268.415 349.322 268.225 349.276 268.033 349.276C267.841 349.276 267.651 349.322 267.481 349.41L260.633 353.377C260.331 353.549 260.346 353.837 260.633 354.024L268.6 358.695ZM270.94 416.958C270.769 416.87 270.58 416.824 270.388 416.824C270.195 416.824 270.006 416.87 269.835 416.958L259.197 423.124C258.91 423.296 258.924 423.584 259.197 423.771L267.236 428.456C267.408 428.541 267.597 428.585 267.789 428.585C267.981 428.585 268.17 428.541 268.342 428.456L278.994 422.305C279.281 422.132 279.267 421.845 278.994 421.658L270.94 416.958ZM254.072 367.016C254.243 367.104 254.432 367.15 254.625 367.15C254.817 367.15 255.007 367.104 255.177 367.016L262.068 363.064C262.355 362.891 262.341 362.604 262.068 362.417L254.058 357.789C253.886 357.704 253.697 357.66 253.505 357.66C253.313 357.66 253.124 357.704 252.952 357.789L246.033 361.785C245.731 361.957 245.746 362.244 246.033 362.431L254.072 367.016ZM243.951 372.865C244.123 372.95 244.312 372.994 244.504 372.994C244.695 372.994 244.885 372.95 245.056 372.865L251.99 368.856C252.278 368.683 252.263 368.396 251.99 368.223L243.98 363.595C243.809 363.507 243.619 363.461 243.427 363.461C243.235 363.461 243.045 363.507 242.874 363.595L235.94 367.591C235.653 367.763 235.668 368.051 235.94 368.238L243.951 372.865ZM458.487 308.594C458.315 308.509 458.126 308.465 457.934 308.465C457.742 308.465 457.553 308.509 457.381 308.594L440.326 318.453C440.039 318.626 440.054 318.913 440.326 319.086L448.337 323.728C448.509 323.813 448.698 323.857 448.89 323.857C449.081 323.857 449.27 323.813 449.442 323.728L466.483 313.869C466.784 313.71 466.77 313.423 466.483 313.236L458.487 308.594ZM436.106 321.529C435.935 321.441 435.745 321.394 435.553 321.394C435.361 321.394 435.171 321.441 435 321.529L428.081 325.539C427.779 325.711 427.794 325.998 428.081 326.171L436.091 330.799C436.262 330.887 436.452 330.933 436.644 330.933C436.836 330.933 437.026 330.887 437.197 330.799L444.131 326.789C444.418 326.631 444.403 326.343 444.131 326.157L436.106 321.529ZM298.992 397.47L305.911 393.475C306.199 393.302 306.184 393.015 305.911 392.828L297.858 388.215C297.686 388.13 297.497 388.085 297.305 388.085C297.113 388.085 296.924 388.13 296.752 388.215L289.833 392.21C289.531 392.382 289.56 392.67 289.833 392.857L297.843 397.484C298.021 397.578 298.219 397.625 298.419 397.623C298.62 397.62 298.817 397.568 298.992 397.47ZM415.864 333.228C415.693 333.139 415.503 333.093 415.311 333.093C415.119 333.093 414.929 333.139 414.758 333.228L407.824 337.223C407.537 337.395 407.552 337.683 407.824 337.87L415.835 342.497C416.007 342.582 416.196 342.627 416.388 342.627C416.579 342.627 416.769 342.582 416.94 342.497L423.86 338.502C424.161 338.33 424.147 338.042 423.86 337.855L415.864 333.228ZM468.608 302.745C468.437 302.656 468.247 302.61 468.055 302.61C467.863 302.61 467.673 302.656 467.502 302.745L460.568 306.754C460.281 306.927 460.295 307.214 460.568 307.387L468.579 312.015C468.75 312.103 468.939 312.149 469.132 312.149C469.324 312.149 469.513 312.103 469.684 312.015L476.604 308.005C476.905 307.847 476.891 307.559 476.604 307.372L468.608 302.745ZM486.739 301.523L467.359 290.284C467.188 290.196 466.998 290.15 466.806 290.15C466.614 290.15 466.424 290.196 466.253 290.284L459.334 294.294C459.032 294.452 459.046 294.739 459.334 294.926L478.786 306.165C478.957 306.253 479.146 306.299 479.339 306.299C479.531 306.299 479.72 306.253 479.891 306.165L486.825 302.155C487.069 301.983 487.055 301.71 486.739 301.523ZM378.036 355.159C377.864 355.074 377.675 355.03 377.483 355.03C377.291 355.03 377.102 355.074 376.93 355.159L368.403 360.089C368.116 360.247 368.13 360.534 368.403 360.721L376.414 365.349C376.584 365.437 376.774 365.483 376.966 365.483C377.159 365.483 377.348 365.437 377.519 365.349L386.032 360.419C386.334 360.247 386.319 359.959 386.032 359.772L378.036 355.159ZM403.604 340.385C403.432 340.3 403.243 340.256 403.051 340.256C402.859 340.256 402.67 340.3 402.498 340.385L391.846 346.55C391.559 346.723 391.573 347.01 391.846 347.183L399.886 351.71C400.056 351.798 400.246 351.844 400.438 351.844C400.631 351.844 400.82 351.798 400.991 351.71L411.643 345.544C411.93 345.386 411.916 345.099 411.643 344.912L403.604 340.385ZM354.592 368.712C354.422 368.624 354.232 368.578 354.04 368.578C353.847 368.578 353.658 368.624 353.487 368.712L296.523 401.566C296.221 401.739 296.25 402.026 296.523 402.213L304.533 406.841C304.705 406.925 304.894 406.97 305.086 406.97C305.278 406.97 305.467 406.925 305.639 406.841L362.632 373.9C362.933 373.728 362.919 373.44 362.632 373.253L354.592 368.712ZM294.384 403.506C294.212 403.421 294.023 403.377 293.831 403.377C293.639 403.377 293.45 403.421 293.278 403.506L284.751 408.335C284.464 408.508 284.478 408.781 284.751 408.968L292.761 413.595C292.932 413.684 293.122 413.73 293.314 413.73C293.506 413.73 293.696 413.684 293.867 413.595L302.394 408.666C302.681 408.493 302.667 408.206 302.394 408.033L294.384 403.506ZM366.307 361.943C366.136 361.854 365.947 361.808 365.754 361.808C365.562 361.808 365.372 361.854 365.202 361.943L356.688 366.872C356.387 367.045 356.401 367.332 356.688 367.519L364.699 372.147C364.871 372.232 365.06 372.276 365.252 372.276C365.443 372.276 365.633 372.232 365.805 372.147L374.332 367.217C374.619 367.045 374.605 366.772 374.332 366.585L366.307 361.943ZM282.669 410.29C282.498 410.202 282.309 410.156 282.116 410.156C281.924 410.156 281.735 410.202 281.564 410.29L273.036 415.219C272.735 415.392 272.763 415.679 273.036 415.866L281.047 420.494C281.219 420.579 281.408 420.623 281.6 420.623C281.791 420.623 281.98 420.579 282.152 420.494L290.78 415.521C291.082 415.349 291.067 415.076 290.78 414.889L282.669 410.29ZM389.75 348.39C389.578 348.305 389.389 348.261 389.198 348.261C389.006 348.261 388.817 348.305 388.645 348.39L380.117 353.319C379.83 353.492 379.845 353.779 380.117 353.966L388.128 358.594C388.299 358.682 388.488 358.728 388.681 358.728C388.873 358.728 389.062 358.682 389.233 358.594L397.761 353.679C398.048 353.506 398.034 353.219 397.761 353.032L389.75 348.39ZM425.985 327.45C425.813 327.365 425.624 327.321 425.432 327.321C425.24 327.321 425.051 327.365 424.879 327.45L417.945 331.46C417.658 331.632 417.673 331.92 417.945 332.092L425.956 336.734C426.128 336.819 426.317 336.863 426.509 336.863C426.7 336.863 426.889 336.819 427.061 336.734L433.995 332.739C434.282 332.566 434.268 332.279 433.995 332.092L425.985 327.45ZM448.165 311.325L455.084 307.315C455.386 307.142 455.371 306.869 455.084 306.683L447.045 301.983C446.874 301.895 446.684 301.849 446.492 301.849C446.3 301.849 446.11 301.895 445.939 301.983L439.006 305.993C438.718 306.165 438.733 306.453 439.006 306.625L447.016 311.253C447.192 311.348 447.39 311.399 447.59 311.399C447.791 311.399 447.988 311.348 448.165 311.253V311.325ZM402.9 311.037L409.834 307.028C410.121 306.855 410.107 306.568 409.834 306.395L401.824 301.767C401.653 301.679 401.463 301.633 401.271 301.633C401.079 301.633 400.889 301.679 400.718 301.767L393.799 305.777C393.497 305.935 393.512 306.223 393.799 306.409L401.809 311.037C401.985 311.109 402.174 311.14 402.363 311.127C402.552 311.115 402.736 311.059 402.9 310.965V311.037ZM379.931 350.747L400.173 339.034C400.46 338.876 400.445 338.588 400.173 338.401L392.162 333.774C391.991 333.685 391.802 333.639 391.609 333.639C391.417 333.639 391.228 333.685 391.057 333.774L370.815 345.472C370.513 345.645 370.542 345.932 370.815 346.119L378.825 350.747C379.008 350.828 379.208 350.864 379.408 350.851C379.608 350.839 379.802 350.778 379.974 350.675L379.931 350.747ZM436.895 317.145C437.066 317.234 437.256 317.28 437.448 317.28C437.64 317.28 437.83 317.234 438.001 317.145L444.92 313.15C445.222 312.977 445.193 312.69 444.92 312.503L436.91 307.875C436.738 307.791 436.549 307.746 436.357 307.746C436.165 307.746 435.976 307.791 435.804 307.875L428.87 311.885C428.583 312.058 428.597 312.345 428.87 312.518L436.895 317.145ZM426.559 310.563L433.479 306.553C433.78 306.395 433.766 306.108 433.479 305.921L425.468 301.293C425.297 301.205 425.107 301.159 424.915 301.159C424.723 301.159 424.533 301.205 424.362 301.293L417.429 305.303C417.141 305.475 417.156 305.763 417.429 305.935L425.439 310.563C425.623 310.65 425.826 310.69 426.03 310.677C426.233 310.664 426.43 310.6 426.602 310.491L426.559 310.563ZM369.795 356.553L376.729 352.543C377.016 352.371 377.002 352.083 376.729 351.911L368.719 347.283C368.548 347.195 368.358 347.149 368.166 347.149C367.974 347.149 367.784 347.195 367.613 347.283L360.694 351.293C360.392 351.451 360.421 351.739 360.694 351.925L368.69 356.553C368.864 356.652 369.059 356.707 369.259 356.715C369.459 356.722 369.658 356.682 369.839 356.596L369.795 356.553ZM414.514 330.037C414.685 330.125 414.875 330.171 415.067 330.171C415.259 330.171 415.449 330.125 415.62 330.037L422.554 326.027C422.841 325.869 422.826 325.582 422.554 325.395L414.543 320.767C414.372 320.679 414.183 320.633 413.99 320.633C413.798 320.633 413.608 320.679 413.438 320.767L406.518 324.777C406.217 324.949 406.231 325.237 406.518 325.409L414.514 330.037ZM319.191 385.8L326.11 381.805C326.412 381.632 326.383 381.345 326.11 381.158L318.057 376.501C317.885 376.416 317.696 376.372 317.504 376.372C317.312 376.372 317.123 376.416 316.951 376.501L310.017 380.511C309.73 380.684 309.744 380.971 310.017 381.158L318.028 385.786C318.214 385.885 318.422 385.936 318.633 385.934C318.843 385.931 319.05 385.875 319.234 385.771L319.191 385.8ZM329.312 379.951L336.231 375.955C336.533 375.783 336.518 375.495 336.231 375.309L328.221 370.681C328.049 370.596 327.86 370.552 327.668 370.552C327.476 370.552 327.287 370.596 327.115 370.681L320.181 374.691C319.894 374.863 319.908 375.15 320.181 375.323L328.192 379.951C328.372 380.044 328.574 380.091 328.777 380.086C328.98 380.081 329.179 380.025 329.355 379.922L329.312 379.951ZM309.07 391.649L315.989 387.654C316.291 387.482 316.262 387.194 315.989 387.007L308.007 382.351C307.836 382.263 307.647 382.216 307.455 382.216C307.262 382.216 307.073 382.263 306.902 382.351L299.968 386.346C299.681 386.519 299.695 386.806 299.968 386.993L307.979 391.621C308.154 391.71 308.349 391.757 308.546 391.757C308.743 391.757 308.937 391.71 309.113 391.621L309.07 391.649ZM349.64 368.223L356.574 364.213C356.861 364.041 356.846 363.768 356.574 363.581L348.563 358.953C348.392 358.865 348.203 358.819 348.01 358.819C347.818 358.819 347.628 358.865 347.458 358.953L340.538 362.963C340.237 363.135 340.251 363.409 340.538 363.595L348.549 368.223C348.718 368.309 348.905 368.354 349.094 368.354C349.284 368.354 349.471 368.309 349.64 368.223ZM339.519 374.073L346.453 370.063C346.74 369.905 346.725 369.617 346.453 369.43L338.442 364.803C338.271 364.714 338.082 364.668 337.889 364.668C337.697 364.668 337.508 364.714 337.337 364.803L330.403 368.812C330.116 368.985 330.13 369.272 330.403 369.445L338.413 374.073C338.579 374.154 338.76 374.196 338.944 374.196C339.129 374.196 339.31 374.154 339.476 374.073H339.519ZM359.689 362.345L366.623 358.335C366.91 358.163 366.896 357.89 366.623 357.703L358.612 353.075C358.441 352.987 358.252 352.941 358.059 352.941C357.867 352.941 357.678 352.987 357.507 353.075L350.587 357.085C350.286 357.257 350.314 357.53 350.587 357.717L358.598 362.345C358.767 362.431 358.954 362.476 359.143 362.476C359.333 362.476 359.52 362.431 359.689 362.345ZM406.001 275.783C406.172 275.871 406.362 275.917 406.554 275.917C406.746 275.917 406.936 275.871 407.107 275.783L414.041 271.773C414.328 271.601 414.313 271.328 414.041 271.141L411.901 269.905C411.731 269.817 411.541 269.771 411.349 269.771C411.156 269.771 410.967 269.817 410.796 269.905L403.877 273.9C403.589 274.073 403.604 274.36 403.877 274.547L406.001 275.783ZM356.2 307.976C356.372 308.061 356.561 308.105 356.753 308.105C356.945 308.105 357.134 308.061 357.306 307.976L364.225 303.981C364.527 303.808 364.512 303.521 364.225 303.334L356.215 298.706C356.044 298.618 355.854 298.572 355.662 298.572C355.47 298.572 355.28 298.618 355.109 298.706L348.204 302.73C347.917 302.903 347.931 303.19 348.204 303.377L356.2 307.976ZM376.442 296.263C376.613 296.351 376.803 296.397 376.995 296.397C377.187 296.397 377.377 296.351 377.548 296.263L384.482 292.268C384.769 292.095 384.754 291.808 384.482 291.621L376.471 286.993C376.299 286.908 376.11 286.864 375.918 286.864C375.727 286.864 375.537 286.908 375.366 286.993L368.432 291.003C368.145 291.175 368.159 291.463 368.432 291.635L376.442 296.263ZM343.897 315.148C344.068 315.236 344.258 315.282 344.45 315.282C344.642 315.282 344.832 315.236 345.003 315.148L351.922 311.152C352.224 310.98 352.209 310.692 351.922 310.505L343.897 305.892C343.725 305.807 343.536 305.763 343.345 305.763C343.153 305.763 342.964 305.807 342.792 305.892L335.858 309.888C335.571 310.06 335.585 310.347 335.858 310.534L343.897 315.148ZM366.379 302.213C366.551 302.298 366.74 302.342 366.931 302.342C367.123 302.342 367.312 302.298 367.484 302.213L374.404 298.218C374.705 298.045 374.691 297.758 374.404 297.571L366.393 292.943C366.222 292.855 366.033 292.809 365.84 292.809C365.648 292.809 365.459 292.855 365.288 292.943L358.253 296.881C357.966 297.053 357.98 297.341 358.253 297.513L366.379 302.213ZM323.627 326.846C323.799 326.931 323.988 326.975 324.179 326.975C324.371 326.975 324.56 326.931 324.732 326.846L331.652 322.837C331.939 322.664 331.924 322.377 331.652 322.204L323.641 317.576C323.47 317.488 323.281 317.442 323.088 317.442C322.896 317.442 322.707 317.488 322.536 317.576L315.616 321.572C315.315 321.744 315.343 322.032 315.616 322.219L323.627 326.846ZM333.748 320.997C333.919 321.085 334.108 321.131 334.3 321.131C334.493 321.131 334.682 321.085 334.853 320.997L341.773 317.002C342.074 316.829 342.045 316.542 341.773 316.355L333.776 311.727C333.604 311.642 333.415 311.598 333.224 311.598C333.032 311.598 332.843 311.642 332.671 311.727L325.737 315.723C325.45 315.895 325.464 316.182 325.737 316.369L333.748 320.997ZM385.788 287.51C385.959 287.599 386.148 287.645 386.341 287.645C386.533 287.645 386.723 287.599 386.893 287.51L393.813 283.515C394.114 283.343 394.1 283.055 393.813 282.868L391.674 281.632C391.502 281.547 391.313 281.503 391.121 281.503C390.93 281.503 390.74 281.547 390.569 281.632L383.649 285.628C383.347 285.8 383.362 286.088 383.649 286.274L385.788 287.51ZM416.151 269.962C416.322 270.051 416.511 270.097 416.704 270.097C416.896 270.097 417.085 270.051 417.256 269.962L424.19 265.953C424.477 265.78 424.463 265.493 424.19 265.32L422.066 264.084C421.894 263.999 421.704 263.955 421.513 263.955C421.321 263.955 421.132 263.999 420.96 264.084L414.026 268.094C413.739 268.266 413.753 268.554 414.026 268.726L416.151 269.962ZM432.976 279.692C433.148 279.777 433.337 279.821 433.529 279.821C433.72 279.821 433.91 279.777 434.081 279.692L441.015 275.697C441.302 275.524 441.288 275.237 441.015 275.05L432.904 270.437C432.732 270.352 432.543 270.307 432.352 270.307C432.16 270.307 431.971 270.352 431.799 270.437L424.879 274.432C424.578 274.604 424.592 274.892 424.879 275.079L432.976 279.692ZM458.286 305.403L465.205 301.394C465.507 301.221 465.492 300.948 465.205 300.761L457.195 296.134C457.024 296.045 456.834 295.999 456.642 295.999C456.45 295.999 456.26 296.045 456.089 296.134L449.155 300.143C448.868 300.316 448.882 300.589 449.155 300.776L457.166 305.403C457.339 305.494 457.531 305.541 457.726 305.541C457.921 305.541 458.113 305.494 458.286 305.403ZM395.909 281.661C396.08 281.749 396.269 281.795 396.462 281.795C396.654 281.795 396.843 281.749 397.014 281.661L403.948 277.651C404.235 277.493 404.221 277.206 403.948 277.019L401.809 275.783C401.637 275.698 401.448 275.654 401.257 275.654C401.065 275.654 400.876 275.698 400.704 275.783L393.784 279.778C393.483 279.951 393.512 280.238 393.784 280.425L395.909 281.661ZM313.491 332.696C313.663 332.781 313.852 332.825 314.044 332.825C314.236 332.825 314.425 332.781 314.597 332.696L321.531 328.686C321.818 328.514 321.803 328.226 321.531 328.054L313.52 323.426C313.349 323.338 313.16 323.292 312.967 323.292C312.775 323.292 312.586 323.338 312.415 323.426L305.495 327.436C305.194 327.594 305.222 327.881 305.495 328.068L313.491 332.696Z" fill="#E0E0E0"/>
<path d="M354.65 395.688L430.464 351.868L477.121 378.83L401.307 422.65L354.65 395.688Z" fill="#263238"/>
<path d="M202.376 135.829L428.267 5.26012C432.689 2.70192 436.307 4.80021 436.307 9.90225V185.067C436.231 186.362 435.854 187.621 435.206 188.744C434.558 189.867 433.657 190.822 432.574 191.535L200.941 325.409C198.888 326.588 197.208 325.625 197.208 323.253V144.783C197.311 142.99 197.832 141.246 198.73 139.691C199.627 138.137 200.876 136.814 202.376 135.829Z" fill="#F5F5F5"/>
<path d="M436.307 14.0988V9.90223C436.307 4.8002 432.689 2.71627 428.267 5.26011L202.376 135.829C200.876 136.814 199.627 138.137 198.73 139.691C197.832 141.246 197.311 142.99 197.208 144.783V152.299L436.307 14.0988Z" fill="#263238"/>
<path d="M402.613 23.6562C401.817 24.1889 401.156 24.9002 400.683 25.7335C400.209 26.5668 399.936 27.4991 399.886 28.4564C399.886 30.2242 401.135 30.9428 402.656 30.0517C403.464 29.5311 404.137 28.8256 404.619 27.9934C405.1 27.1613 405.377 26.2264 405.427 25.2659C405.384 23.4981 404.193 22.7795 402.613 23.6562Z" fill="#E0E0E0"/>
<path d="M413.596 17.3182C412.788 17.842 412.115 18.5501 411.634 19.3846C411.152 20.219 410.875 21.1559 410.825 22.1184C410.825 23.8862 412.06 24.5904 413.596 23.7137C414.409 23.1817 415.085 22.4638 415.566 21.6193C416.048 20.7747 416.322 19.8275 416.367 18.856C416.367 17.1457 415.118 16.4271 413.596 17.3182Z" fill="#E0E0E0"/>
<path d="M424.577 10.9658C423.771 11.4913 423.1 12.1998 422.618 13.0339C422.137 13.868 421.859 14.8041 421.807 15.766C421.807 17.5337 423.041 18.2523 424.577 17.3613C425.381 16.8373 426.049 16.1307 426.528 15.299C427.007 14.4673 427.283 13.5341 427.334 12.5754C427.334 10.8077 426.099 10.0891 424.577 10.9658Z" fill="#E0E0E0"/>
<path d="M197.208 152.299V186.002L436.292 47.8154V14.0989L197.208 152.299Z" fill="url(#paint17_linear_1_1360)"/>
<path opacity="0.1" d="M197.208 152.299V186.002L436.292 47.8154V14.0989L197.208 152.299Z" fill="#020D0B"/>
<path d="M212.871 168.439C212.067 168.689 211.213 168.734 210.387 168.568V152.055C210.381 151.741 210.45 151.431 210.588 151.15C210.759 150.879 210.996 150.656 211.277 150.503L212.512 149.799C212.828 149.612 213.057 149.554 213.201 149.641C213.344 149.727 213.416 149.942 213.416 150.302V155.734C213.874 155.023 214.425 154.375 215.053 153.808C215.72 153.202 216.452 152.672 217.235 152.227C219.044 151.178 220.436 150.934 221.427 151.523C222.417 152.112 222.862 153.449 222.862 155.519C222.887 157.841 222.292 160.128 221.14 162.144C219.912 164.222 218.153 165.933 216.043 167.102C215.053 167.693 213.985 168.142 212.871 168.439ZM218.872 161.699C219.547 160.364 219.878 158.882 219.833 157.387C219.833 155.95 219.575 155.087 219.073 154.728C218.57 154.369 217.723 154.513 216.531 155.202C215.681 155.703 214.944 156.373 214.364 157.171C213.768 157.915 213.435 158.834 213.416 159.787V165.45C213.796 165.491 214.179 165.441 214.536 165.306C215.034 165.143 215.515 164.931 215.972 164.674C217.201 163.978 218.207 162.946 218.872 161.699Z" fill="#FAFAFA"/>
<path d="M225.46 161.009C225.317 160.908 225.245 160.707 225.245 160.362V143.461C225.236 143.145 225.31 142.833 225.46 142.555C225.623 142.278 225.863 142.054 226.149 141.908L227.427 141.175C227.743 140.989 227.972 140.945 228.116 141.017C228.26 141.089 228.331 141.319 228.331 141.678V158.58C228.345 158.885 228.276 159.188 228.13 159.457C227.962 159.738 227.719 159.968 227.427 160.118L226.149 160.851C225.819 161.037 225.589 161.138 225.46 161.009Z" fill="#FAFAFA"/>
<path d="M232.394 155.749C231.26 155.131 230.7 153.737 230.7 151.538C230.694 149.362 231.28 147.226 232.394 145.358C233.566 143.393 235.235 141.772 237.232 140.658C239.314 139.451 240.936 139.221 242.07 139.767C243.204 140.313 243.779 141.779 243.779 143.978C243.787 146.156 243.196 148.294 242.07 150.158C240.899 152.127 239.23 153.753 237.232 154.872C235.136 156.079 233.528 156.367 232.394 155.749ZM239.831 149.597C240.444 148.408 240.75 147.084 240.721 145.746C240.721 144.309 240.419 143.374 239.831 142.958C239.242 142.541 238.395 142.67 237.232 143.331C236.138 143.948 235.237 144.859 234.634 145.961C234.013 147.138 233.702 148.454 233.729 149.784C233.729 151.241 234.031 152.199 234.634 152.659C235.237 153.09 236.069 152.975 237.232 152.328C238.336 151.697 239.237 150.765 239.831 149.641V149.597Z" fill="#FAFAFA"/>
<path d="M249.564 151.753C248.923 152.015 248.233 152.138 247.54 152.112C247.282 152.112 247.224 151.926 247.354 151.609L248.043 149.842C248.097 149.67 248.196 149.516 248.33 149.396C248.41 149.375 248.494 149.375 248.574 149.396C249.806 149.302 250.992 148.891 252.019 148.203C252.993 147.672 253.81 146.894 254.388 145.947C254.93 144.881 255.187 143.693 255.135 142.498C254.71 143.286 254.179 144.011 253.555 144.653C252.908 145.306 252.173 145.867 251.373 146.321C249.579 147.355 248.172 147.6 247.167 147.054C246.162 146.507 245.66 145.185 245.66 143.13C245.641 140.862 246.263 138.635 247.454 136.706C248.748 134.665 250.536 132.985 252.651 131.819C253.609 131.249 254.644 130.819 255.723 130.54C256.514 130.305 257.349 130.251 258.164 130.382V139.939C258.186 142.066 257.694 144.167 256.728 146.062C255.71 147.96 254.164 149.523 252.278 150.56C251.41 151.036 250.502 151.435 249.564 151.753ZM254.288 141.118C254.835 140.302 255.13 139.342 255.135 138.359V133.4C254.734 133.433 254.341 133.53 253.972 133.688C253.474 133.882 252.994 134.118 252.536 134.392C251.335 135.03 250.339 135.998 249.666 137.181C248.992 138.364 248.668 139.714 248.732 141.075C248.732 142.512 249.005 143.317 249.564 143.676C250.124 144.035 251 143.863 252.12 143.216C252.999 142.7 253.742 141.98 254.288 141.118Z" fill="#FAFAFA"/>
<path d="M238.022 177.321V295.789C238.022 296.579 238.438 296.982 238.941 296.68C239.232 296.435 239.465 296.13 239.624 295.784C239.783 295.439 239.863 295.062 239.859 294.682V176.214C239.859 175.424 239.443 175.036 238.941 175.338C238.648 175.578 238.414 175.881 238.255 176.224C238.096 176.567 238.016 176.942 238.022 177.321Z" fill="url(#paint18_linear_1_1360)"/>
<path d="M168.051 223.282L220.149 193.101C221.872 192.11 223.264 192.914 223.264 194.898V231.589C223.206 232.67 222.893 233.721 222.351 234.658C221.81 235.594 221.055 236.39 220.149 236.979L168.051 267.088C166.343 268.08 164.95 267.275 164.95 265.291V228.686C165.007 227.605 165.318 226.552 165.856 225.614C166.395 224.675 167.147 223.876 168.051 223.282Z" fill="#E0E0E0"/>
<path d="M223.307 194.955C223.307 192.972 221.871 192.167 220.192 193.159L168.094 223.34C167.192 223.932 166.441 224.729 165.902 225.665C165.364 226.601 165.052 227.651 164.993 228.729V231.848L223.307 198.088V194.955Z" fill="url(#paint19_linear_1_1360)"/>
<path d="M170.765 235.168L194.093 221.687V245.286L170.765 258.767V235.168Z" fill="#FAFAFA"/>
<path d="M170.778 255.332L179.521 239.781C179.59 239.624 179.699 239.488 179.837 239.387C179.975 239.285 180.137 239.222 180.307 239.203C180.477 239.184 180.649 239.21 180.806 239.279C180.963 239.348 181.099 239.456 181.201 239.594L184.259 242.957L189.527 230.784C189.843 230.052 190.46 229.98 190.963 230.641L194.15 235.168V245.228L170.821 258.709L170.778 255.332Z" fill="url(#paint20_linear_1_1360)"/>
<path d="M199.936 220.35C199.936 221.471 200.768 221.903 201.802 221.299L215.555 213.351C216.088 213.014 216.534 212.556 216.858 212.014C217.182 211.472 217.375 210.862 217.421 210.233C217.421 209.112 216.588 208.68 215.569 209.284L201.773 217.189C201.237 217.531 200.791 217.997 200.472 218.547C200.152 219.097 199.968 219.715 199.936 220.35Z" fill="#FAFAFA"/>
<path d="M199.936 230.123C199.936 231.244 200.768 231.676 201.802 231.086L215.555 223.124C216.089 222.788 216.537 222.331 216.861 221.789C217.186 221.247 217.377 220.636 217.421 220.006C217.421 218.884 216.588 218.468 215.569 219.057L201.773 226.933C201.236 227.281 200.789 227.751 200.47 228.306C200.15 228.861 199.967 229.484 199.936 230.123Z" fill="#FAFAFA"/>
<path d="M199.936 239.753C199.936 240.888 200.768 241.305 201.802 240.715L215.555 232.753C216.089 232.421 216.537 231.966 216.861 231.426C217.186 230.886 217.378 230.277 217.421 229.649C217.421 228.528 216.588 228.097 215.569 228.686L201.773 236.648C201.244 236.984 200.802 237.44 200.483 237.98C200.163 238.519 199.976 239.127 199.936 239.753Z" fill="#FAFAFA"/>
<path d="M168.051 280.08L220.149 249.971C221.872 248.979 223.264 249.784 223.264 251.767V288.459C223.206 289.539 222.893 290.591 222.351 291.527C221.81 292.464 221.055 293.259 220.149 293.848L168.051 324.03C166.343 325.021 164.95 324.216 164.95 322.233V285.47C165.009 284.391 165.321 283.341 165.86 282.405C166.398 281.469 167.149 280.673 168.051 280.08Z" fill="#E0E0E0"/>
<path d="M223.307 251.767C223.307 249.784 221.871 248.979 220.192 249.971L168.094 280.08C167.192 280.673 166.441 281.469 165.902 282.405C165.364 283.341 165.052 284.391 164.993 285.47V288.603L223.307 254.886V251.767Z" fill="url(#paint21_linear_1_1360)"/>
<path d="M170.765 291.966L194.093 278.485V302.084L170.765 315.564V291.966Z" fill="#FAFAFA"/>
<path d="M170.778 312.144L179.521 296.593C179.59 296.437 179.699 296.3 179.837 296.199C179.975 296.097 180.137 296.034 180.307 296.015C180.477 295.996 180.649 296.022 180.806 296.091C180.963 296.16 181.099 296.269 181.201 296.407L184.259 299.755L189.527 287.582C189.843 286.849 190.46 286.792 190.963 287.439L194.15 291.966V302.026L170.821 315.507L170.778 312.144Z" fill="url(#paint22_linear_1_1360)"/>
<path d="M199.936 277.148C199.936 278.269 200.768 278.7 201.802 278.111L215.555 270.149C216.089 269.816 216.537 269.361 216.861 268.822C217.186 268.282 217.378 267.673 217.421 267.045C217.421 265.909 216.588 265.493 215.569 266.082L201.773 274.044C201.244 274.38 200.802 274.836 200.483 275.376C200.163 275.915 199.976 276.523 199.936 277.148Z" fill="#FAFAFA"/>
<path d="M199.936 286.849C199.936 287.985 200.768 288.402 201.802 287.812L215.555 279.85C216.089 279.517 216.537 279.063 216.861 278.523C217.186 277.983 217.378 277.374 217.421 276.746C217.421 275.625 216.588 275.194 215.569 275.783L201.773 283.745C201.244 284.081 200.802 284.537 200.483 285.077C200.163 285.616 199.976 286.224 199.936 286.849Z" fill="#FAFAFA"/>
<path d="M199.936 296.565C199.936 297.686 200.768 298.117 201.802 297.513L215.555 289.566C216.088 289.228 216.534 288.77 216.858 288.228C217.182 287.687 217.375 287.077 217.421 286.447C217.421 285.326 216.588 284.895 215.569 285.498L201.773 293.446C201.246 293.787 200.805 294.246 200.486 294.788C200.167 295.329 199.978 295.938 199.936 296.565Z" fill="#FAFAFA"/>
<path d="M258.637 224.648L418.806 132.078C420.515 131.086 421.907 131.891 421.907 133.874V180.626C421.848 181.705 421.536 182.755 420.998 183.691C420.459 184.627 419.708 185.423 418.806 186.016L258.637 278.585C256.914 279.577 255.521 278.772 255.521 276.789V230.037C255.58 228.957 255.893 227.905 256.434 226.969C256.975 226.032 257.73 225.237 258.637 224.648Z" fill="#E0E0E0"/>
<path d="M421.907 133.831C421.907 131.848 420.471 131.043 418.806 132.035L258.637 224.648C257.73 225.237 256.975 226.032 256.434 226.969C255.893 227.905 255.58 228.957 255.521 230.037V233.156L421.907 136.993V133.831Z" fill="url(#paint23_linear_1_1360)"/>
<path d="M295.087 214.932L262.729 233.616C262.008 234.091 261.408 234.728 260.977 235.477C260.546 236.226 260.295 237.065 260.245 237.927V269.948C260.245 271.529 261.365 272.176 262.729 271.385L295.087 252.702C295.809 252.227 296.409 251.59 296.84 250.841C297.272 250.092 297.522 249.253 297.571 248.39V216.369C297.513 214.788 296.393 214.142 295.087 214.932Z" fill="#FAFAFA"/>
<path d="M271.6 243.058L260.188 267.49V270.02C260.188 271.601 261.307 272.248 262.671 271.457L295.029 252.774C295.751 252.299 296.351 251.662 296.783 250.913C297.214 250.164 297.464 249.325 297.513 248.462V237.309L291.397 225.812C290.651 224.375 289.545 224.446 288.928 225.912L279.295 248.548L274.615 242.713C274.459 242.426 274.222 242.193 273.932 242.042C273.643 241.892 273.316 241.831 272.992 241.868C272.668 241.905 272.362 242.038 272.114 242.25C271.867 242.462 271.688 242.744 271.6 243.058Z" fill="url(#paint24_linear_1_1360)"/>
<path d="M263.934 242.771C265.56 241.709 266.913 240.279 267.884 238.596C268.854 236.913 269.414 235.024 269.519 233.084C269.56 232.059 269.262 231.049 268.672 230.21L262.671 233.673C261.95 234.149 261.35 234.786 260.919 235.535C260.488 236.283 260.237 237.122 260.188 237.985V243.317C260.81 243.536 261.476 243.601 262.128 243.506C262.781 243.41 263.401 243.158 263.934 242.771Z" fill="url(#paint25_linear_1_1360)"/>
<path d="M312.127 207.89L412.131 150.1C413.566 149.296 414.614 149.842 414.614 151.308C414.548 152.135 414.289 152.936 413.858 153.644C413.427 154.353 412.835 154.951 412.131 155.389L312.127 213.193C310.692 213.984 309.644 213.437 309.644 211.972C309.71 211.144 309.969 210.344 310.4 209.635C310.831 208.926 311.423 208.328 312.127 207.89Z" fill="#FAFAFA"/>
<path d="M312.127 221.371L412.131 163.581C413.566 162.776 414.614 163.323 414.614 164.789C414.548 165.616 414.289 166.416 413.858 167.125C413.427 167.834 412.835 168.432 412.131 168.87L312.127 226.674C310.692 227.465 309.644 226.918 309.644 225.452C309.711 224.625 309.97 223.825 310.402 223.117C310.833 222.408 311.424 221.81 312.127 221.371Z" fill="#FAFAFA"/>
<path d="M312.127 234.852L412.131 177.062C413.566 176.257 414.614 176.803 414.614 178.269C414.547 179.098 414.288 179.9 413.857 180.612C413.425 181.323 412.834 181.923 412.131 182.365L312.127 240.184C310.692 240.974 309.644 240.428 309.644 238.962C309.706 238.13 309.964 237.324 310.395 236.61C310.827 235.896 311.42 235.294 312.127 234.852Z" fill="#FAFAFA"/>
<path d="M475.743 76.7892L461.071 76.3437C460.08 75.5101 444.662 58.0914 444.662 58.0914C444.662 58.0914 439.121 66.8439 439.02 67.4044C438.92 67.9649 454.137 84.2483 455.644 85.8867C456.067 86.4371 456.611 86.8829 457.233 87.1894C457.855 87.4959 458.54 87.655 459.233 87.6544C463.21 87.8844 478.097 88.9335 478.097 88.9335L475.743 76.7892Z" fill="#F28F8F"/>
<path d="M496.602 93.6763L473.977 91.9947L475.728 76.7892L499.085 77.3066L496.602 93.6763Z" fill="url(#paint26_linear_1_1360)"/>
<path opacity="0.2" d="M496.602 93.6763L473.977 91.9947L475.728 76.7892L499.085 77.3066L496.602 93.6763Z" fill="#020D0B"/>
<path d="M287.794 143.691L447.963 51.121C449.672 50.1293 451.064 50.9341 451.064 52.9175V99.6837C451.004 100.762 450.692 101.811 450.154 102.747C449.615 103.683 448.865 104.48 447.963 105.073L287.794 197.643C286.071 198.634 284.679 197.83 284.679 195.846V149.08C284.737 148 285.05 146.948 285.591 146.012C286.133 145.075 286.887 144.28 287.794 143.691Z" fill="#E0E0E0"/>
<path d="M451.064 52.9175C451.064 50.9341 449.629 50.1293 447.963 51.121L287.794 143.691C286.887 144.28 286.133 145.075 285.591 146.012C285.05 146.948 284.737 148 284.679 149.08V152.199L451.064 56.0362V52.9175Z" fill="url(#paint27_linear_1_1360)"/>
<path d="M324.187 133.99L291.828 152.673C291.105 153.146 290.503 153.783 290.072 154.532C289.64 155.281 289.391 156.121 289.345 156.985V188.991C289.345 190.572 290.464 191.219 291.828 190.428L324.187 171.745C324.91 171.272 325.512 170.635 325.943 169.886C326.375 169.137 326.624 168.296 326.67 167.433V135.427C326.67 133.831 325.55 133.199 324.187 133.99Z" fill="#FAFAFA"/>
<path d="M300.829 162.115L289.345 186.476V189.005C289.345 190.586 290.464 191.233 291.828 190.442L324.187 171.759C324.91 171.286 325.512 170.649 325.943 169.9C326.375 169.151 326.624 168.311 326.67 167.447V156.395L320.555 144.898C319.808 143.461 318.703 143.547 318.085 144.998L308.453 167.677L303.772 161.828C303.61 161.567 303.377 161.357 303.102 161.221C302.826 161.085 302.518 161.029 302.212 161.059C301.906 161.089 301.615 161.203 301.37 161.39C301.126 161.577 300.939 161.828 300.829 162.115Z" fill="url(#paint28_linear_1_1360)"/>
<path d="M293.092 161.828C294.717 160.763 296.069 159.329 297.04 157.644C298.01 155.959 298.57 154.069 298.676 152.127C298.715 151.102 298.417 150.092 297.829 149.253L291.828 152.731C291.105 153.203 290.503 153.84 290.072 154.589C289.64 155.338 289.391 156.179 289.345 157.042V162.36C289.966 162.581 290.631 162.648 291.284 162.555C291.936 162.463 292.557 162.213 293.092 161.828Z" fill="url(#paint29_linear_1_1360)"/>
<path d="M341.284 126.933L441.288 69.1578C442.724 68.3673 443.772 68.8991 443.772 70.365C443.706 71.1944 443.447 71.9968 443.015 72.708C442.584 73.4193 441.992 74.0196 441.288 74.461L341.284 132.251C339.921 133.041 338.801 132.509 338.801 131.043C338.866 130.212 339.124 129.407 339.555 128.693C339.987 127.979 340.579 127.377 341.284 126.933Z" fill="#FAFAFA"/>
<path d="M341.284 140.414L441.288 82.6242C442.724 81.8338 443.772 82.3799 443.772 83.8315C443.706 84.6609 443.447 85.4633 443.015 86.1745C442.584 86.8857 441.992 87.4861 441.288 87.9275L341.284 145.717C339.921 146.522 338.801 145.976 338.801 144.51C338.868 143.681 339.127 142.879 339.559 142.168C339.99 141.457 340.581 140.856 341.284 140.414Z" fill="#FAFAFA"/>
<path d="M341.284 153.952L441.288 96.1626C442.724 95.3721 443.772 95.9183 443.772 97.3698C443.706 98.1992 443.447 99.0016 443.015 99.7128C442.584 100.424 441.992 101.024 441.288 101.466L341.284 159.255C339.921 160.06 338.801 159.514 338.801 158.048C338.868 157.219 339.127 156.417 339.559 155.706C339.99 154.995 340.581 154.394 341.284 153.952Z" fill="#FAFAFA"/>
<path d="M525.486 254.441H517.016V266.801H525.486V254.441Z" fill="#FFA8A7"/>
<path d="M495.695 239.114L487.23 239.406L487.655 251.758L496.12 251.467L495.695 239.114Z" fill="#FFA8A7"/>
<path d="M524.94 133.831C524.94 141.937 525.988 194.352 525.988 194.352C526.189 196.68 528.371 200.977 527.898 209.945C527.266 222.104 526.204 255.935 526.204 255.935C526.204 255.935 522.241 259.888 516.628 255.935C516.628 255.935 508.948 210.017 507.426 197.973C506.105 187.453 503.851 158.867 503.851 158.867L496.07 192.44C496.07 192.44 497.506 200.345 497.764 205.935C498.023 211.526 496.329 243.748 496.329 243.748C494.958 244.61 493.386 245.097 491.768 245.16C490.151 245.223 488.545 244.86 487.112 244.107C487.112 244.107 480.279 197.068 479.346 191.952C478.413 186.835 485.303 133.831 485.303 133.831H524.94Z" fill="#455A64"/>
<path d="M512.192 77.6803H512.307C515.934 78.6092 519.147 80.7244 521.436 83.6902C523.725 86.6559 524.958 90.3022 524.941 94.0499V133.831C518.997 140.299 498.282 143.317 485.304 133.831V92.4402C485.304 85.8292 488.964 77.8815 499.1 77.2922L512.192 77.6803Z" fill="url(#paint30_linear_1_1360)"/>
<path d="M515.035 43.8488C515.719 43.7691 516.412 43.8468 517.061 44.0759C517.71 44.305 518.299 44.6796 518.782 45.171C520.39 46.8094 520.045 49.8563 518.782 56.841L513.814 57.4159L515.035 43.8488Z" fill="#263238"/>
<path d="M486.122 41.8511C485.051 41.8555 483.991 41.6403 483.006 41.2187C481.485 40.342 481.097 42.0667 481.93 43.5757C482.479 44.6538 483.295 45.5728 484.301 46.2447C485.306 46.9165 486.467 47.3188 487.672 47.413C487.672 47.1975 489.108 43.5326 489.108 43.5326L486.122 41.8511Z" fill="#263238"/>
<path d="M512.709 57.4159C513.455 57.8614 514.503 56.4386 515.407 55.49C515.766 55.0824 516.222 54.7727 516.732 54.5898C517.243 54.407 517.792 54.357 518.327 54.4446C518.863 54.5323 519.367 54.7546 519.793 55.0908C520.219 55.427 520.552 55.8661 520.762 56.3667C522.27 59.5429 518.853 63.7683 516.843 65.1623C516.28 65.6514 515.577 65.9496 514.834 66.0141C514.091 66.0786 513.347 65.9063 512.709 65.5216L512.192 77.6803C511.303 79.6305 509.945 81.3293 508.239 82.6237C506.532 83.9182 504.531 84.7678 502.415 85.0962C495.237 86.0735 496.759 80.181 499.099 77.2922V72.8801C497.316 73.2596 495.484 73.3518 493.672 73.1531C492.739 72.9088 490.529 70.2787 489.093 67.2175C487.485 63.8401 484.786 57.847 487.184 47.7148C489.753 36.8353 501.425 36.5047 508.387 40.8881C515.35 45.2716 512.709 57.4159 512.709 57.4159Z" fill="#FFA8A7"/>
<path d="M512.708 58.6662C513.082 58.6662 514.489 56.3236 515.407 55.49C516.685 54.3403 515.034 43.8488 515.034 43.8488C515.034 43.8488 516.326 39.8821 513.814 37.2377C511.302 34.5933 506.435 35.0532 502.875 34.9238C498.505 34.9503 494.176 34.0796 490.155 32.3656C485.116 30.1667 484.729 29.908 484.111 32.1357C483.494 34.3633 483.236 39.4366 486.265 42.8571L488.763 43.7769C488.763 43.7769 490.127 44.9842 494.835 45.559C499.184 45.8875 503.553 45.8009 507.885 45.3004C509.249 45.1135 509.55 46.4501 510.282 50.0718C510.928 53.248 511.474 58.6375 512.708 58.6662Z" fill="#263238"/>
<path d="M515.035 44.7255L519.485 42.3398C519.343 42.0388 519.142 41.7698 518.893 41.5491C518.644 41.3284 518.354 41.1605 518.038 41.0557C517.723 40.9509 517.389 40.9113 517.058 40.9393C516.727 40.9674 516.405 41.0624 516.111 41.2187C515.516 41.5529 515.073 42.1035 514.872 42.7564C514.672 43.4093 514.73 44.1144 515.035 44.7255Z" fill="#263238"/>
<path d="M499.113 72.8801C502.156 72.2986 505.14 71.4423 508.028 70.3219C509.379 69.6055 510.488 68.5054 511.215 67.16C510.867 68.5096 510.252 69.7754 509.407 70.8824C507.713 73.0381 499.113 74.6334 499.113 74.6334V72.8801Z" fill="#F28F8F"/>
<path d="M500.693 55.7631C500.713 56.0229 500.808 56.2713 500.967 56.4777C501.125 56.6841 501.341 56.8396 501.587 56.9251C501.833 57.0105 502.098 57.0222 502.35 56.9587C502.603 56.8951 502.831 56.7591 503.007 56.5674C503.183 56.3757 503.3 56.1366 503.342 55.8795C503.384 55.6225 503.351 55.3587 503.245 55.1205C503.14 54.8824 502.967 54.6803 502.748 54.5391C502.529 54.398 502.274 54.3238 502.014 54.3259C501.832 54.3314 501.654 54.3732 501.488 54.4488C501.323 54.5244 501.175 54.6323 501.052 54.7662C500.928 54.9001 500.833 55.0573 500.772 55.2285C500.71 55.3996 500.684 55.5814 500.693 55.7631Z" fill="#263238"/>
<path d="M502.1 50.7617L504.971 52.3282C505.173 51.9396 505.218 51.4875 505.095 51.0669C504.971 50.6462 504.69 50.2896 504.31 50.0718C504.122 49.9613 503.913 49.8914 503.697 49.8665C503.48 49.8416 503.261 49.8623 503.053 49.9272C502.844 49.9922 502.652 50.1 502.488 50.2437C502.324 50.3874 502.192 50.5638 502.1 50.7617Z" fill="#263238"/>
<path d="M500.793 64.7455L497.778 65.8809C497.843 66.0849 497.948 66.2736 498.087 66.4357C498.227 66.5978 498.398 66.7299 498.59 66.824C498.782 66.918 498.991 66.9721 499.204 66.9829C499.417 66.9938 499.631 66.9611 499.831 66.887C500.237 66.7232 500.563 66.4089 500.742 66.0098C500.921 65.6108 500.94 65.1578 500.793 64.7455Z" fill="#F28F8F"/>
<path d="M488.892 51.9114L491.476 49.9137C491.355 49.7397 491.2 49.5921 491.02 49.4799C490.84 49.3677 490.64 49.2932 490.43 49.261C490.221 49.2287 490.007 49.2394 489.802 49.2923C489.597 49.3452 489.405 49.4393 489.237 49.5688C488.892 49.8415 488.663 50.236 488.599 50.6716C488.535 51.1071 488.64 51.5507 488.892 51.9114Z" fill="#263238"/>
<path d="M489.696 55.3894C489.68 55.5725 489.703 55.7569 489.762 55.9308C489.821 56.1047 489.916 56.2644 490.04 56.3996C490.164 56.5349 490.316 56.6427 490.484 56.7162C490.652 56.7897 490.834 56.8273 491.017 56.8266C491.305 56.8497 491.593 56.7855 491.844 56.6423C492.094 56.4991 492.296 56.2835 492.422 56.0238C492.549 55.764 492.594 55.4722 492.553 55.1862C492.511 54.9003 492.384 54.6336 492.189 54.421C491.993 54.2083 491.738 54.0596 491.457 53.9942C491.176 53.9287 490.882 53.9497 490.612 54.0542C490.343 54.1588 490.112 54.3421 489.949 54.5803C489.785 54.8185 489.697 55.1005 489.696 55.3894Z" fill="#263238"/>
<path d="M496.429 54.1391L495.998 62.1012L491.835 60.6927L496.429 54.1391Z" fill="#F28F8F"/>
<path d="M517.03 262.604V261.397C516.211 261.742 514.331 268.942 510.972 272.018C508.287 274.461 504.641 277.278 503.722 279.994C502.803 282.71 508.804 284.392 511.302 283.946C514.173 283.429 519.226 281.388 520.49 279.491C521.753 277.594 522.341 274.791 523.361 273.412C524.38 272.032 526.749 270.465 527.309 268.856C527.475 267.353 527.308 265.832 526.821 264.4C526.433 262.963 526.002 261.253 525.485 261.397V262.316C524.282 263.272 522.786 263.78 521.25 263.754C520.03 263.797 517.015 263.552 517.03 262.604Z" fill="#263238"/>
<path d="M487.557 249.166C487.112 249.166 486.753 249.799 485.777 250.862C484.329 252.33 482.645 253.544 480.796 254.455C477.623 256.036 471.45 258.479 468.665 259.744C466.913 260.534 466.999 262.618 468.794 263.84C470.588 265.062 474.953 265.909 480.193 264.731C483.064 264.099 486.739 261.469 489.093 261.612C491.448 261.756 495.826 261.713 497.563 260.52C499.3 259.327 498.597 256.769 498.109 254.584C497.578 252.184 496.802 248.519 496.013 248.692V249.439C494.994 250.977 489.811 251.609 487.572 250.474L487.557 249.166Z" fill="#263238"/>
<path d="M514.733 83.1991L488.548 110.305C488.548 110.305 465.578 106.194 457.74 103.938C455.271 103.234 453.548 99.54 453.002 96.7518C452.862 95.3 452.156 93.9623 451.036 93.0295C451.036 93.0295 451.036 95.0559 450.519 98.3759C450.318 99.813 448.05 99.9999 446.025 100.445C438.847 101.998 436.407 100.445 433.435 102.515C431.138 104.153 434.024 108.407 439.264 109.845C446.628 111.871 450.749 110.865 455.17 111.972C458.63 112.834 483.523 120.595 488.261 121.687C490.759 122.233 492.668 122.061 495.439 119.373C498.209 116.686 518.824 98.6345 518.824 98.6345L514.733 83.1991Z" fill="#FFA8A7"/>
<path d="M515.896 82.2649C513.025 81.5319 495.511 102.386 495.511 102.386L505.158 110.491C505.158 110.491 517.648 102.299 519.858 98.9938C522.069 95.6883 524.582 84.4351 515.896 82.2649Z" fill="url(#paint31_linear_1_1360)"/>
<path d="M505.79 111.038C505.79 111.038 518.968 99.2238 519.586 97.9303C520.777 95.444 520.447 90.845 520.447 90.845C520.447 90.845 521.883 94.8404 520.447 97.9303C519.011 101.02 508.962 109.802 507.369 111.311L505.746 112.834L504.182 111.397L505.115 110.578L505.79 111.038Z" fill="url(#paint32_linear_1_1360)"/>
<path opacity="0.2" d="M505.79 111.038C505.79 111.038 518.968 99.2238 519.586 97.9303C520.777 95.444 520.447 90.845 520.447 90.845C520.447 90.845 521.883 94.8404 520.447 97.9303C519.011 101.02 508.962 109.802 507.369 111.311L505.746 112.834L504.182 111.397L505.115 110.578L505.79 111.038Z" fill="#020D0B"/>
<path d="M439.58 52.5438C442.451 52.2276 444.36 50.1006 445.006 50.6898C445.268 50.969 445.421 51.3332 445.437 51.7158C445.453 52.0984 445.33 52.4739 445.093 52.7738C443.768 53.7813 442.321 54.6168 440.786 55.2601C440.426 56.7209 440.167 58.2047 440.011 59.701C439.767 61.8999 439.853 66.2977 437.972 67.7924C432.359 72.3052 430.923 65.148 431.139 60.3478C431.469 54.3834 436.579 52.8744 439.58 52.5438Z" fill="#F28F8F"/>
</g>
<defs>
<linearGradient id="paint0_linear_1_1360" x1="550.572" y1="327.479" x2="593.672" y2="326.574" gradientUnits="userSpaceOnUse">
<stop stop-color="#0E7469"/>
<stop offset="1" stop-color="#2BAE95"/>
</linearGradient>
<linearGradient id="paint1_linear_1_1360" x1="546.514" y1="310.004" x2="588.791" y2="309.448" gradientUnits="userSpaceOnUse">
<stop stop-color="#0E7469"/>
<stop offset="1" stop-color="#2BAE95"/>
</linearGradient>
<linearGradient id="paint2_linear_1_1360" x1="104.369" y1="329.736" x2="128.952" y2="329.587" gradientUnits="userSpaceOnUse">
<stop stop-color="#0E7469"/>
<stop offset="1" stop-color="#2BAE95"/>
</linearGradient>
<linearGradient id="paint3_linear_1_1360" x1="80.1599" y1="359.199" x2="152.566" y2="357.894" gradientUnits="userSpaceOnUse">
<stop stop-color="#0E7469"/>
<stop offset="1" stop-color="#2BAE95"/>
</linearGradient>
<linearGradient id="paint4_linear_1_1360" x1="21.455" y1="323.954" x2="58.2028" y2="323.534" gradientUnits="userSpaceOnUse">
<stop stop-color="#0E7469"/>
<stop offset="1" stop-color="#2BAE95"/>
</linearGradient>
<linearGradient id="paint5_linear_1_1360" x1="31.0067" y1="326.197" x2="58.5652" y2="325.93" gradientUnits="userSpaceOnUse">
<stop stop-color="#0E7469"/>
<stop offset="1" stop-color="#2BAE95"/>
</linearGradient>
<linearGradient id="paint6_linear_1_1360" x1="20.7176" y1="330.642" x2="32.6153" y2="330.579" gradientUnits="userSpaceOnUse">
<stop stop-color="#0E7469"/>
<stop offset="1" stop-color="#2BAE95"/>
</linearGradient>
<linearGradient id="paint7_linear_1_1360" x1="21.4409" y1="258.224" x2="58.1753" y2="257.805" gradientUnits="userSpaceOnUse">
<stop stop-color="#0E7469"/>
<stop offset="1" stop-color="#2BAE95"/>
</linearGradient>
<linearGradient id="paint8_linear_1_1360" x1="31.0067" y1="260.48" x2="58.5652" y2="260.213" gradientUnits="userSpaceOnUse">
<stop stop-color="#0E7469"/>
<stop offset="1" stop-color="#2BAE95"/>
</linearGradient>
<linearGradient id="paint9_linear_1_1360" x1="20.7176" y1="264.876" x2="32.6153" y2="264.813" gradientUnits="userSpaceOnUse">
<stop stop-color="#0E7469"/>
<stop offset="1" stop-color="#2BAE95"/>
</linearGradient>
<linearGradient id="paint10_linear_1_1360" x1="21.455" y1="192.559" x2="58.2028" y2="192.139" gradientUnits="userSpaceOnUse">
<stop stop-color="#0E7469"/>
<stop offset="1" stop-color="#2BAE95"/>
</linearGradient>
<linearGradient id="paint11_linear_1_1360" x1="31.0067" y1="194.763" x2="58.5652" y2="194.495" gradientUnits="userSpaceOnUse">
<stop stop-color="#0E7469"/>
<stop offset="1" stop-color="#2BAE95"/>
</linearGradient>
<linearGradient id="paint12_linear_1_1360" x1="20.7176" y1="199.194" x2="32.6153" y2="199.131" gradientUnits="userSpaceOnUse">
<stop stop-color="#0E7469"/>
<stop offset="1" stop-color="#2BAE95"/>
</linearGradient>
<linearGradient id="paint13_linear_1_1360" x1="7.88048" y1="125.46" x2="64.0673" y2="124.82" gradientUnits="userSpaceOnUse">
<stop stop-color="#0E7469"/>
<stop offset="1" stop-color="#2BAE95"/>
</linearGradient>
<linearGradient id="paint14_linear_1_1360" x1="22.4487" y1="101.202" x2="64.6962" y2="100.166" gradientUnits="userSpaceOnUse">
<stop stop-color="#0E7469"/>
<stop offset="1" stop-color="#2BAE95"/>
</linearGradient>
<linearGradient id="paint15_linear_1_1360" x1="22.489" y1="128.899" x2="64.6641" y2="128.491" gradientUnits="userSpaceOnUse">
<stop stop-color="#0E7469"/>
<stop offset="1" stop-color="#2BAE95"/>
</linearGradient>
<linearGradient id="paint16_linear_1_1360" x1="6.64586" y1="135.727" x2="24.8676" y2="135.63" gradientUnits="userSpaceOnUse">
<stop stop-color="#0E7469"/>
<stop offset="1" stop-color="#2BAE95"/>
</linearGradient>
<linearGradient id="paint17_linear_1_1360" x1="203.706" y1="116.106" x2="426.74" y2="111.204" gradientUnits="userSpaceOnUse">
<stop stop-color="#0E7469"/>
<stop offset="1" stop-color="#2BAE95"/>
</linearGradient>
<linearGradient id="paint18_linear_1_1360" x1="238.071" y1="247.36" x2="239.787" y2="247.36" gradientUnits="userSpaceOnUse">
<stop stop-color="#0E7469"/>
<stop offset="1" stop-color="#2BAE95"/>
</linearGradient>
<linearGradient id="paint19_linear_1_1360" x1="166.578" y1="215.944" x2="220.973" y2="214.663" gradientUnits="userSpaceOnUse">
<stop stop-color="#0E7469"/>
<stop offset="1" stop-color="#2BAE95"/>
</linearGradient>
<linearGradient id="paint20_linear_1_1360" x1="171.414" y1="247.112" x2="193.223" y2="246.83" gradientUnits="userSpaceOnUse">
<stop stop-color="#0E7469"/>
<stop offset="1" stop-color="#2BAE95"/>
</linearGradient>
<linearGradient id="paint21_linear_1_1360" x1="166.578" y1="272.722" x2="220.973" y2="271.439" gradientUnits="userSpaceOnUse">
<stop stop-color="#0E7469"/>
<stop offset="1" stop-color="#2BAE95"/>
</linearGradient>
<linearGradient id="paint22_linear_1_1360" x1="171.414" y1="303.912" x2="193.223" y2="303.63" gradientUnits="userSpaceOnUse">
<stop stop-color="#0E7469"/>
<stop offset="1" stop-color="#2BAE95"/>
</linearGradient>
<linearGradient id="paint23_linear_1_1360" x1="260.043" y1="191.867" x2="415.23" y2="187.849" gradientUnits="userSpaceOnUse">
<stop stop-color="#0E7469"/>
<stop offset="1" stop-color="#2BAE95"/>
</linearGradient>
<linearGradient id="paint24_linear_1_1360" x1="261.202" y1="252.675" x2="296.033" y2="252.238" gradientUnits="userSpaceOnUse">
<stop stop-color="#0E7469"/>
<stop offset="1" stop-color="#2BAE95"/>
</linearGradient>
<linearGradient id="paint25_linear_1_1360" x1="260.441" y1="238.125" x2="269.153" y2="238.028" gradientUnits="userSpaceOnUse">
<stop stop-color="#0E7469"/>
<stop offset="1" stop-color="#2BAE95"/>
</linearGradient>
<linearGradient id="paint26_linear_1_1360" x1="474.659" y1="86.81" x2="498.08" y2="86.2597" gradientUnits="userSpaceOnUse">
<stop stop-color="#0E7469"/>
<stop offset="1" stop-color="#2BAE95"/>
</linearGradient>
<linearGradient id="paint27_linear_1_1360" x1="289.201" y1="110.928" x2="444.387" y2="106.908" gradientUnits="userSpaceOnUse">
<stop stop-color="#0E7469"/>
<stop offset="1" stop-color="#2BAE95"/>
</linearGradient>
<linearGradient id="paint28_linear_1_1360" x1="290.359" y1="171.704" x2="325.19" y2="171.266" gradientUnits="userSpaceOnUse">
<stop stop-color="#0E7469"/>
<stop offset="1" stop-color="#2BAE95"/>
</linearGradient>
<linearGradient id="paint29_linear_1_1360" x1="289.598" y1="157.17" x2="298.31" y2="157.074" gradientUnits="userSpaceOnUse">
<stop stop-color="#0E7469"/>
<stop offset="1" stop-color="#2BAE95"/>
</linearGradient>
<linearGradient id="paint30_linear_1_1360" x1="486.381" y1="114.424" x2="523.371" y2="114.053" gradientUnits="userSpaceOnUse">
<stop stop-color="#0E7469"/>
<stop offset="1" stop-color="#2BAE95"/>
</linearGradient>
<linearGradient id="paint31_linear_1_1360" x1="496.23" y1="99.0068" x2="520.931" y2="98.641" gradientUnits="userSpaceOnUse">
<stop stop-color="#0E7469"/>
<stop offset="1" stop-color="#2BAE95"/>
</linearGradient>
<linearGradient id="paint32_linear_1_1360" x1="504.641" y1="103.893" x2="520.415" y2="103.702" gradientUnits="userSpaceOnUse">
<stop stop-color="#0E7469"/>
<stop offset="1" stop-color="#2BAE95"/>
</linearGradient>
<clipPath id="clip0_1_1360">
<rect width="616" height="512" fill="white"/>
</clipPath>
</defs>
</svg>
