<svg width="56" height="56" viewBox="0 0 56 56" fill="none" xmlns="http://www.w3.org/2000/svg">
<rect width="56" height="56" rx="28" fill="url(#paint0_linear_1_1089)"/>
<path d="M19.9453 20.5H36.0545C36.1998 20.5 36.342 20.5422 36.4637 20.6215C36.5855 20.7008 36.6816 20.8137 36.7404 20.9466C36.7992 21.0795 36.8181 21.2266 36.7948 21.37C36.7716 21.5134 36.7072 21.647 36.6094 21.7545L30.4449 28.5355C30.3194 28.6735 30.2499 28.8534 30.2499 29.04V34.3486C30.2499 34.4721 30.2194 34.5936 30.1612 34.7025C30.1029 34.8114 30.0187 34.9042 29.9159 34.9726L26.9159 36.9727C26.803 37.048 26.6717 37.0912 26.5361 37.0977C26.4005 37.1043 26.2657 37.0739 26.146 37.0099C26.0263 36.9458 25.9263 36.8505 25.8565 36.734C25.7867 36.6176 25.7499 36.4844 25.7499 36.3486V29.04C25.7499 28.8534 25.6804 28.6735 25.5549 28.5355L19.3904 21.7545C19.2926 21.647 19.2282 21.5134 19.205 21.37C19.1817 21.2266 19.2006 21.0795 19.2594 20.9466C19.3182 20.8137 19.4143 20.7008 19.5361 20.6215C19.6578 20.5422 19.8 20.5 19.9453 20.5V20.5Z" stroke="white" stroke-width="1.5" stroke-linecap="round" stroke-linejoin="round"/>
<defs>
<linearGradient id="paint0_linear_1_1089" x1="1.52195" y1="33.2304" x2="53.7748" y2="32.4047" gradientUnits="userSpaceOnUse">
<stop stop-color="#0E7469"/>
<stop offset="1" stop-color="#2BAE95"/>
</linearGradient>
</defs>
</svg>
